ISO-10303-21;
HEADER;
/* Generated by software containing ST-Developer
 * from STEP Tools, Inc. (www.steptools.com) 
 */

FILE_DESCRIPTION(
/* description */ (''),
/* implementation_level */ '2;1');

FILE_NAME(
/* name */ 'EMOCD_Track.step',
/* time_stamp */ '2026-07-23T17:22:49+05:30',
/* author */ (''),
/* organization */ (''),
/* preprocessor_version */ 'ST-DEVELOPER v20.1',
/* originating_system */ 'Autodesk Translation Framework v15.8.0.0',
/* authorisation */ '');

FILE_SCHEMA (('AUTOMOTIVE_DESIGN { 1 0 10303 214 3 1 1 }'));
ENDSEC;

DATA;
#10=MECHANICAL_DESIGN_GEOMETRIC_PRESENTATION_REPRESENTATION('',(#13,#14,
#15,#16,#17,#18),#1466);
#11=SHAPE_REPRESENTATION_RELATIONSHIP('SRR','None',#1473,#12);
#12=ADVANCED_BREP_SHAPE_REPRESENTATION('',(#19,#20,#21,#22,#23,#24),#1465);
#13=STYLED_ITEM('',(#1483),#19);
#14=STYLED_ITEM('',(#1483),#20);
#15=STYLED_ITEM('',(#1484),#21);
#16=STYLED_ITEM('',(#1484),#22);
#17=STYLED_ITEM('',(#1484),#23);
#18=STYLED_ITEM('',(#1484),#24);
#19=MANIFOLD_SOLID_BREP('longeron_P',#913);
#20=MANIFOLD_SOLID_BREP('longeron_S',#914);
#21=MANIFOLD_SOLID_BREP('guide_rail_upper_P',#915);
#22=MANIFOLD_SOLID_BREP('guide_rail_lower_P',#916);
#23=MANIFOLD_SOLID_BREP('guide_rail_upper_S',#917);
#24=MANIFOLD_SOLID_BREP('guide_rail_lower_S',#918);
#25=FACE_OUTER_BOUND('',#77,.T.);
#26=FACE_OUTER_BOUND('',#78,.T.);
#27=FACE_OUTER_BOUND('',#79,.T.);
#28=FACE_OUTER_BOUND('',#80,.T.);
#29=FACE_OUTER_BOUND('',#81,.T.);
#30=FACE_OUTER_BOUND('',#82,.T.);
#31=FACE_OUTER_BOUND('',#83,.T.);
#32=FACE_OUTER_BOUND('',#84,.T.);
#33=FACE_OUTER_BOUND('',#85,.T.);
#34=FACE_OUTER_BOUND('',#86,.T.);
#35=FACE_OUTER_BOUND('',#87,.T.);
#36=FACE_OUTER_BOUND('',#88,.T.);
#37=FACE_OUTER_BOUND('',#89,.T.);
#38=FACE_OUTER_BOUND('',#90,.T.);
#39=FACE_OUTER_BOUND('',#91,.T.);
#40=FACE_OUTER_BOUND('',#92,.T.);
#41=FACE_OUTER_BOUND('',#93,.T.);
#42=FACE_OUTER_BOUND('',#94,.T.);
#43=FACE_OUTER_BOUND('',#95,.T.);
#44=FACE_OUTER_BOUND('',#96,.T.);
#45=FACE_OUTER_BOUND('',#97,.T.);
#46=FACE_OUTER_BOUND('',#98,.T.);
#47=FACE_OUTER_BOUND('',#99,.T.);
#48=FACE_OUTER_BOUND('',#100,.T.);
#49=FACE_OUTER_BOUND('',#101,.T.);
#50=FACE_OUTER_BOUND('',#102,.T.);
#51=FACE_OUTER_BOUND('',#103,.T.);
#52=FACE_OUTER_BOUND('',#104,.T.);
#53=FACE_OUTER_BOUND('',#105,.T.);
#54=FACE_OUTER_BOUND('',#106,.T.);
#55=FACE_OUTER_BOUND('',#107,.T.);
#56=FACE_OUTER_BOUND('',#108,.T.);
#57=FACE_OUTER_BOUND('',#109,.T.);
#58=FACE_OUTER_BOUND('',#110,.T.);
#59=FACE_OUTER_BOUND('',#111,.T.);
#60=FACE_OUTER_BOUND('',#112,.T.);
#61=FACE_OUTER_BOUND('',#113,.T.);
#62=FACE_OUTER_BOUND('',#114,.T.);
#63=FACE_OUTER_BOUND('',#115,.T.);
#64=FACE_OUTER_BOUND('',#116,.T.);
#65=FACE_OUTER_BOUND('',#117,.T.);
#66=FACE_OUTER_BOUND('',#118,.T.);
#67=FACE_OUTER_BOUND('',#119,.T.);
#68=FACE_OUTER_BOUND('',#120,.T.);
#69=FACE_OUTER_BOUND('',#121,.T.);
#70=FACE_OUTER_BOUND('',#122,.T.);
#71=FACE_OUTER_BOUND('',#123,.T.);
#72=FACE_OUTER_BOUND('',#124,.T.);
#73=FACE_OUTER_BOUND('',#125,.T.);
#74=FACE_OUTER_BOUND('',#126,.T.);
#75=FACE_OUTER_BOUND('',#127,.T.);
#76=FACE_OUTER_BOUND('',#128,.T.);
#77=EDGE_LOOP('',(#569,#570,#571,#572));
#78=EDGE_LOOP('',(#573,#574,#575,#576));
#79=EDGE_LOOP('',(#577,#578,#579,#580));
#80=EDGE_LOOP('',(#581,#582,#583,#584));
#81=EDGE_LOOP('',(#585,#586,#587,#588,#589,#590,#591,#592,#593,#594,#595,
#596));
#82=EDGE_LOOP('',(#597,#598,#599,#600));
#83=EDGE_LOOP('',(#601,#602,#603,#604));
#84=EDGE_LOOP('',(#605,#606,#607,#608));
#85=EDGE_LOOP('',(#609,#610,#611,#612));
#86=EDGE_LOOP('',(#613,#614,#615,#616));
#87=EDGE_LOOP('',(#617,#618,#619,#620));
#88=EDGE_LOOP('',(#621,#622,#623,#624,#625,#626,#627,#628,#629,#630,#631,
#632));
#89=EDGE_LOOP('',(#633,#634,#635,#636));
#90=EDGE_LOOP('',(#637,#638,#639,#640));
#91=EDGE_LOOP('',(#641,#642,#643,#644));
#92=EDGE_LOOP('',(#645,#646,#647,#648));
#93=EDGE_LOOP('',(#649,#650,#651,#652));
#94=EDGE_LOOP('',(#653,#654,#655,#656));
#95=EDGE_LOOP('',(#657,#658,#659,#660,#661,#662,#663,#664,#665,#666,#667,
#668));
#96=EDGE_LOOP('',(#669,#670,#671,#672));
#97=EDGE_LOOP('',(#673,#674,#675,#676));
#98=EDGE_LOOP('',(#677,#678,#679,#680));
#99=EDGE_LOOP('',(#681,#682,#683,#684));
#100=EDGE_LOOP('',(#685,#686,#687,#688));
#101=EDGE_LOOP('',(#689,#690,#691,#692));
#102=EDGE_LOOP('',(#693,#694,#695,#696,#697,#698,#699,#700,#701,#702,#703,
#704));
#103=EDGE_LOOP('',(#705,#706,#707,#708));
#104=EDGE_LOOP('',(#709,#710,#711,#712));
#105=EDGE_LOOP('',(#713,#714,#715,#716));
#106=EDGE_LOOP('',(#717,#718,#719,#720));
#107=EDGE_LOOP('',(#721,#722,#723,#724));
#108=EDGE_LOOP('',(#725,#726,#727,#728));
#109=EDGE_LOOP('',(#729,#730,#731,#732));
#110=EDGE_LOOP('',(#733,#734,#735,#736));
#111=EDGE_LOOP('',(#737,#738,#739,#740));
#112=EDGE_LOOP('',(#741,#742,#743,#744));
#113=EDGE_LOOP('',(#745,#746,#747,#748));
#114=EDGE_LOOP('',(#749,#750,#751,#752));
#115=EDGE_LOOP('',(#753,#754,#755,#756));
#116=EDGE_LOOP('',(#757,#758,#759,#760));
#117=EDGE_LOOP('',(#761,#762,#763,#764));
#118=EDGE_LOOP('',(#765,#766,#767,#768));
#119=EDGE_LOOP('',(#769,#770,#771,#772));
#120=EDGE_LOOP('',(#773,#774,#775,#776));
#121=EDGE_LOOP('',(#777,#778,#779,#780));
#122=EDGE_LOOP('',(#781,#782,#783,#784));
#123=EDGE_LOOP('',(#785,#786,#787,#788));
#124=EDGE_LOOP('',(#789,#790,#791,#792));
#125=EDGE_LOOP('',(#793,#794,#795,#796));
#126=EDGE_LOOP('',(#797,#798,#799,#800));
#127=EDGE_LOOP('',(#801,#802,#803,#804));
#128=EDGE_LOOP('',(#805,#806,#807,#808));
#129=LINE('',#1214,#249);
#130=LINE('',#1216,#250);
#131=LINE('',#1218,#251);
#132=LINE('',#1219,#252);
#133=LINE('',#1223,#253);
#134=LINE('',#1225,#254);
#135=LINE('',#1227,#255);
#136=LINE('',#1228,#256);
#137=LINE('',#1231,#257);
#138=LINE('',#1233,#258);
#139=LINE('',#1234,#259);
#140=LINE('',#1237,#260);
#141=LINE('',#1239,#261);
#142=LINE('',#1240,#262);
#143=LINE('',#1243,#263);
#144=LINE('',#1245,#264);
#145=LINE('',#1247,#265);
#146=LINE('',#1249,#266);
#147=LINE('',#1250,#267);
#148=LINE('',#1252,#268);
#149=LINE('',#1254,#269);
#150=LINE('',#1255,#270);
#151=LINE('',#1258,#271);
#152=LINE('',#1259,#272);
#153=LINE('',#1262,#273);
#154=LINE('',#1263,#274);
#155=LINE('',#1266,#275);
#156=LINE('',#1267,#276);
#157=LINE('',#1270,#277);
#158=LINE('',#1271,#278);
#159=LINE('',#1273,#279);
#160=LINE('',#1276,#280);
#161=LINE('',#1277,#281);
#162=LINE('',#1280,#282);
#163=LINE('',#1281,#283);
#164=LINE('',#1283,#284);
#165=LINE('',#1288,#285);
#166=LINE('',#1290,#286);
#167=LINE('',#1292,#287);
#168=LINE('',#1293,#288);
#169=LINE('',#1297,#289);
#170=LINE('',#1299,#290);
#171=LINE('',#1301,#291);
#172=LINE('',#1302,#292);
#173=LINE('',#1305,#293);
#174=LINE('',#1307,#294);
#175=LINE('',#1308,#295);
#176=LINE('',#1311,#296);
#177=LINE('',#1313,#297);
#178=LINE('',#1314,#298);
#179=LINE('',#1317,#299);
#180=LINE('',#1319,#300);
#181=LINE('',#1321,#301);
#182=LINE('',#1323,#302);
#183=LINE('',#1324,#303);
#184=LINE('',#1326,#304);
#185=LINE('',#1328,#305);
#186=LINE('',#1329,#306);
#187=LINE('',#1332,#307);
#188=LINE('',#1333,#308);
#189=LINE('',#1336,#309);
#190=LINE('',#1337,#310);
#191=LINE('',#1340,#311);
#192=LINE('',#1341,#312);
#193=LINE('',#1344,#313);
#194=LINE('',#1345,#314);
#195=LINE('',#1347,#315);
#196=LINE('',#1350,#316);
#197=LINE('',#1351,#317);
#198=LINE('',#1354,#318);
#199=LINE('',#1355,#319);
#200=LINE('',#1357,#320);
#201=LINE('',#1362,#321);
#202=LINE('',#1364,#322);
#203=LINE('',#1366,#323);
#204=LINE('',#1367,#324);
#205=LINE('',#1370,#325);
#206=LINE('',#1372,#326);
#207=LINE('',#1373,#327);
#208=LINE('',#1376,#328);
#209=LINE('',#1378,#329);
#210=LINE('',#1379,#330);
#211=LINE('',#1381,#331);
#212=LINE('',#1382,#332);
#213=LINE('',#1388,#333);
#214=LINE('',#1390,#334);
#215=LINE('',#1392,#335);
#216=LINE('',#1393,#336);
#217=LINE('',#1396,#337);
#218=LINE('',#1398,#338);
#219=LINE('',#1399,#339);
#220=LINE('',#1402,#340);
#221=LINE('',#1404,#341);
#222=LINE('',#1405,#342);
#223=LINE('',#1407,#343);
#224=LINE('',#1408,#344);
#225=LINE('',#1414,#345);
#226=LINE('',#1416,#346);
#227=LINE('',#1418,#347);
#228=LINE('',#1419,#348);
#229=LINE('',#1422,#349);
#230=LINE('',#1424,#350);
#231=LINE('',#1425,#351);
#232=LINE('',#1428,#352);
#233=LINE('',#1430,#353);
#234=LINE('',#1431,#354);
#235=LINE('',#1433,#355);
#236=LINE('',#1434,#356);
#237=LINE('',#1440,#357);
#238=LINE('',#1442,#358);
#239=LINE('',#1444,#359);
#240=LINE('',#1445,#360);
#241=LINE('',#1448,#361);
#242=LINE('',#1450,#362);
#243=LINE('',#1451,#363);
#244=LINE('',#1454,#364);
#245=LINE('',#1456,#365);
#246=LINE('',#1457,#366);
#247=LINE('',#1459,#367);
#248=LINE('',#1460,#368);
#249=VECTOR('',#988,10.);
#250=VECTOR('',#989,10.);
#251=VECTOR('',#990,10.);
#252=VECTOR('',#991,10.);
#253=VECTOR('',#994,10.);
#254=VECTOR('',#995,10.);
#255=VECTOR('',#996,10.);
#256=VECTOR('',#997,10.);
#257=VECTOR('',#1000,10.);
#258=VECTOR('',#1001,10.);
#259=VECTOR('',#1002,10.);
#260=VECTOR('',#1005,10.);
#261=VECTOR('',#1006,10.);
#262=VECTOR('',#1007,10.);
#263=VECTOR('',#1010,10.);
#264=VECTOR('',#1011,10.);
#265=VECTOR('',#1012,10.);
#266=VECTOR('',#1013,10.);
#267=VECTOR('',#1014,10.);
#268=VECTOR('',#1015,10.);
#269=VECTOR('',#1016,10.);
#270=VECTOR('',#1017,10.);
#271=VECTOR('',#1020,10.);
#272=VECTOR('',#1021,10.);
#273=VECTOR('',#1024,10.);
#274=VECTOR('',#1025,10.);
#275=VECTOR('',#1028,10.);
#276=VECTOR('',#1029,10.);
#277=VECTOR('',#1032,10.);
#278=VECTOR('',#1033,10.);
#279=VECTOR('',#1036,10.);
#280=VECTOR('',#1039,10.);
#281=VECTOR('',#1040,10.);
#282=VECTOR('',#1043,10.);
#283=VECTOR('',#1044,10.);
#284=VECTOR('',#1047,10.);
#285=VECTOR('',#1052,10.);
#286=VECTOR('',#1053,10.);
#287=VECTOR('',#1054,10.);
#288=VECTOR('',#1055,10.);
#289=VECTOR('',#1058,10.);
#290=VECTOR('',#1059,10.);
#291=VECTOR('',#1060,10.);
#292=VECTOR('',#1061,10.);
#293=VECTOR('',#1064,10.);
#294=VECTOR('',#1065,10.);
#295=VECTOR('',#1066,10.);
#296=VECTOR('',#1069,10.);
#297=VECTOR('',#1070,10.);
#298=VECTOR('',#1071,10.);
#299=VECTOR('',#1074,10.);
#300=VECTOR('',#1075,10.);
#301=VECTOR('',#1076,10.);
#302=VECTOR('',#1077,10.);
#303=VECTOR('',#1078,10.);
#304=VECTOR('',#1079,10.);
#305=VECTOR('',#1080,10.);
#306=VECTOR('',#1081,10.);
#307=VECTOR('',#1084,10.);
#308=VECTOR('',#1085,10.);
#309=VECTOR('',#1088,10.);
#310=VECTOR('',#1089,10.);
#311=VECTOR('',#1092,10.);
#312=VECTOR('',#1093,10.);
#313=VECTOR('',#1096,10.);
#314=VECTOR('',#1097,10.);
#315=VECTOR('',#1100,10.);
#316=VECTOR('',#1103,10.);
#317=VECTOR('',#1104,10.);
#318=VECTOR('',#1107,10.);
#319=VECTOR('',#1108,10.);
#320=VECTOR('',#1111,10.);
#321=VECTOR('',#1116,10.);
#322=VECTOR('',#1117,10.);
#323=VECTOR('',#1118,10.);
#324=VECTOR('',#1119,10.);
#325=VECTOR('',#1122,10.);
#326=VECTOR('',#1123,10.);
#327=VECTOR('',#1124,10.);
#328=VECTOR('',#1127,10.);
#329=VECTOR('',#1128,10.);
#330=VECTOR('',#1129,10.);
#331=VECTOR('',#1132,10.);
#332=VECTOR('',#1133,10.);
#333=VECTOR('',#1140,10.);
#334=VECTOR('',#1141,10.);
#335=VECTOR('',#1142,10.);
#336=VECTOR('',#1143,10.);
#337=VECTOR('',#1146,10.);
#338=VECTOR('',#1147,10.);
#339=VECTOR('',#1148,10.);
#340=VECTOR('',#1151,10.);
#341=VECTOR('',#1152,10.);
#342=VECTOR('',#1153,10.);
#343=VECTOR('',#1156,10.);
#344=VECTOR('',#1157,10.);
#345=VECTOR('',#1164,10.);
#346=VECTOR('',#1165,10.);
#347=VECTOR('',#1166,10.);
#348=VECTOR('',#1167,10.);
#349=VECTOR('',#1170,10.);
#350=VECTOR('',#1171,10.);
#351=VECTOR('',#1172,10.);
#352=VECTOR('',#1175,10.);
#353=VECTOR('',#1176,10.);
#354=VECTOR('',#1177,10.);
#355=VECTOR('',#1180,10.);
#356=VECTOR('',#1181,10.);
#357=VECTOR('',#1188,10.);
#358=VECTOR('',#1189,10.);
#359=VECTOR('',#1190,10.);
#360=VECTOR('',#1191,10.);
#361=VECTOR('',#1194,10.);
#362=VECTOR('',#1195,10.);
#363=VECTOR('',#1196,10.);
#364=VECTOR('',#1199,10.);
#365=VECTOR('',#1200,10.);
#366=VECTOR('',#1201,10.);
#367=VECTOR('',#1204,10.);
#368=VECTOR('',#1205,10.);
#369=VERTEX_POINT('',#1212);
#370=VERTEX_POINT('',#1213);
#371=VERTEX_POINT('',#1215);
#372=VERTEX_POINT('',#1217);
#373=VERTEX_POINT('',#1221);
#374=VERTEX_POINT('',#1222);
#375=VERTEX_POINT('',#1224);
#376=VERTEX_POINT('',#1226);
#377=VERTEX_POINT('',#1230);
#378=VERTEX_POINT('',#1232);
#379=VERTEX_POINT('',#1236);
#380=VERTEX_POINT('',#1238);
#381=VERTEX_POINT('',#1242);
#382=VERTEX_POINT('',#1244);
#383=VERTEX_POINT('',#1246);
#384=VERTEX_POINT('',#1248);
#385=VERTEX_POINT('',#1251);
#386=VERTEX_POINT('',#1253);
#387=VERTEX_POINT('',#1257);
#388=VERTEX_POINT('',#1261);
#389=VERTEX_POINT('',#1265);
#390=VERTEX_POINT('',#1269);
#391=VERTEX_POINT('',#1275);
#392=VERTEX_POINT('',#1279);
#393=VERTEX_POINT('',#1286);
#394=VERTEX_POINT('',#1287);
#395=VERTEX_POINT('',#1289);
#396=VERTEX_POINT('',#1291);
#397=VERTEX_POINT('',#1295);
#398=VERTEX_POINT('',#1296);
#399=VERTEX_POINT('',#1298);
#400=VERTEX_POINT('',#1300);
#401=VERTEX_POINT('',#1304);
#402=VERTEX_POINT('',#1306);
#403=VERTEX_POINT('',#1310);
#404=VERTEX_POINT('',#1312);
#405=VERTEX_POINT('',#1316);
#406=VERTEX_POINT('',#1318);
#407=VERTEX_POINT('',#1320);
#408=VERTEX_POINT('',#1322);
#409=VERTEX_POINT('',#1325);
#410=VERTEX_POINT('',#1327);
#411=VERTEX_POINT('',#1331);
#412=VERTEX_POINT('',#1335);
#413=VERTEX_POINT('',#1339);
#414=VERTEX_POINT('',#1343);
#415=VERTEX_POINT('',#1349);
#416=VERTEX_POINT('',#1353);
#417=VERTEX_POINT('',#1360);
#418=VERTEX_POINT('',#1361);
#419=VERTEX_POINT('',#1363);
#420=VERTEX_POINT('',#1365);
#421=VERTEX_POINT('',#1369);
#422=VERTEX_POINT('',#1371);
#423=VERTEX_POINT('',#1375);
#424=VERTEX_POINT('',#1377);
#425=VERTEX_POINT('',#1386);
#426=VERTEX_POINT('',#1387);
#427=VERTEX_POINT('',#1389);
#428=VERTEX_POINT('',#1391);
#429=VERTEX_POINT('',#1395);
#430=VERTEX_POINT('',#1397);
#431=VERTEX_POINT('',#1401);
#432=VERTEX_POINT('',#1403);
#433=VERTEX_POINT('',#1412);
#434=VERTEX_POINT('',#1413);
#435=VERTEX_POINT('',#1415);
#436=VERTEX_POINT('',#1417);
#437=VERTEX_POINT('',#1421);
#438=VERTEX_POINT('',#1423);
#439=VERTEX_POINT('',#1427);
#440=VERTEX_POINT('',#1429);
#441=VERTEX_POINT('',#1438);
#442=VERTEX_POINT('',#1439);
#443=VERTEX_POINT('',#1441);
#444=VERTEX_POINT('',#1443);
#445=VERTEX_POINT('',#1447);
#446=VERTEX_POINT('',#1449);
#447=VERTEX_POINT('',#1453);
#448=VERTEX_POINT('',#1455);
#449=EDGE_CURVE('',#369,#370,#129,.T.);
#450=EDGE_CURVE('',#371,#369,#130,.T.);
#451=EDGE_CURVE('',#372,#371,#131,.T.);
#452=EDGE_CURVE('',#370,#372,#132,.T.);
#453=EDGE_CURVE('',#373,#374,#133,.T.);
#454=EDGE_CURVE('',#375,#373,#134,.T.);
#455=EDGE_CURVE('',#376,#375,#135,.T.);
#456=EDGE_CURVE('',#374,#376,#136,.T.);
#457=EDGE_CURVE('',#377,#374,#137,.T.);
#458=EDGE_CURVE('',#378,#377,#138,.T.);
#459=EDGE_CURVE('',#373,#378,#139,.T.);
#460=EDGE_CURVE('',#379,#370,#140,.T.);
#461=EDGE_CURVE('',#380,#379,#141,.T.);
#462=EDGE_CURVE('',#369,#380,#142,.T.);
#463=EDGE_CURVE('',#381,#372,#143,.T.);
#464=EDGE_CURVE('',#382,#381,#144,.T.);
#465=EDGE_CURVE('',#382,#383,#145,.T.);
#466=EDGE_CURVE('',#383,#384,#146,.T.);
#467=EDGE_CURVE('',#375,#384,#147,.T.);
#468=EDGE_CURVE('',#378,#385,#148,.T.);
#469=EDGE_CURVE('',#385,#386,#149,.T.);
#470=EDGE_CURVE('',#386,#379,#150,.T.);
#471=EDGE_CURVE('',#371,#387,#151,.T.);
#472=EDGE_CURVE('',#387,#381,#152,.T.);
#473=EDGE_CURVE('',#384,#388,#153,.T.);
#474=EDGE_CURVE('',#388,#376,#154,.T.);
#475=EDGE_CURVE('',#380,#389,#155,.T.);
#476=EDGE_CURVE('',#389,#386,#156,.T.);
#477=EDGE_CURVE('',#389,#390,#157,.T.);
#478=EDGE_CURVE('',#385,#390,#158,.T.);
#479=EDGE_CURVE('',#390,#377,#159,.T.);
#480=EDGE_CURVE('',#391,#382,#160,.T.);
#481=EDGE_CURVE('',#391,#387,#161,.T.);
#482=EDGE_CURVE('',#392,#388,#162,.T.);
#483=EDGE_CURVE('',#392,#391,#163,.T.);
#484=EDGE_CURVE('',#383,#392,#164,.T.);
#485=EDGE_CURVE('',#393,#394,#165,.T.);
#486=EDGE_CURVE('',#395,#393,#166,.T.);
#487=EDGE_CURVE('',#396,#395,#167,.T.);
#488=EDGE_CURVE('',#394,#396,#168,.T.);
#489=EDGE_CURVE('',#397,#398,#169,.T.);
#490=EDGE_CURVE('',#399,#397,#170,.T.);
#491=EDGE_CURVE('',#400,#399,#171,.T.);
#492=EDGE_CURVE('',#398,#400,#172,.T.);
#493=EDGE_CURVE('',#401,#398,#173,.T.);
#494=EDGE_CURVE('',#402,#401,#174,.T.);
#495=EDGE_CURVE('',#397,#402,#175,.T.);
#496=EDGE_CURVE('',#403,#394,#176,.T.);
#497=EDGE_CURVE('',#404,#403,#177,.T.);
#498=EDGE_CURVE('',#393,#404,#178,.T.);
#499=EDGE_CURVE('',#405,#396,#179,.T.);
#500=EDGE_CURVE('',#406,#405,#180,.T.);
#501=EDGE_CURVE('',#406,#407,#181,.T.);
#502=EDGE_CURVE('',#407,#408,#182,.T.);
#503=EDGE_CURVE('',#399,#408,#183,.T.);
#504=EDGE_CURVE('',#402,#409,#184,.T.);
#505=EDGE_CURVE('',#409,#410,#185,.T.);
#506=EDGE_CURVE('',#410,#403,#186,.T.);
#507=EDGE_CURVE('',#395,#411,#187,.T.);
#508=EDGE_CURVE('',#411,#405,#188,.T.);
#509=EDGE_CURVE('',#408,#412,#189,.T.);
#510=EDGE_CURVE('',#412,#400,#190,.T.);
#511=EDGE_CURVE('',#404,#413,#191,.T.);
#512=EDGE_CURVE('',#413,#410,#192,.T.);
#513=EDGE_CURVE('',#413,#414,#193,.T.);
#514=EDGE_CURVE('',#409,#414,#194,.T.);
#515=EDGE_CURVE('',#414,#401,#195,.T.);
#516=EDGE_CURVE('',#415,#406,#196,.T.);
#517=EDGE_CURVE('',#415,#411,#197,.T.);
#518=EDGE_CURVE('',#416,#412,#198,.T.);
#519=EDGE_CURVE('',#416,#415,#199,.T.);
#520=EDGE_CURVE('',#407,#416,#200,.T.);
#521=EDGE_CURVE('',#417,#418,#201,.T.);
#522=EDGE_CURVE('',#418,#419,#202,.T.);
#523=EDGE_CURVE('',#420,#419,#203,.T.);
#524=EDGE_CURVE('',#417,#420,#204,.T.);
#525=EDGE_CURVE('',#421,#417,#205,.T.);
#526=EDGE_CURVE('',#422,#420,#206,.T.);
#527=EDGE_CURVE('',#421,#422,#207,.T.);
#528=EDGE_CURVE('',#423,#421,#208,.T.);
#529=EDGE_CURVE('',#424,#422,#209,.T.);
#530=EDGE_CURVE('',#423,#424,#210,.T.);
#531=EDGE_CURVE('',#418,#423,#211,.T.);
#532=EDGE_CURVE('',#419,#424,#212,.T.);
#533=EDGE_CURVE('',#425,#426,#213,.T.);
#534=EDGE_CURVE('',#426,#427,#214,.T.);
#535=EDGE_CURVE('',#428,#427,#215,.T.);
#536=EDGE_CURVE('',#425,#428,#216,.T.);
#537=EDGE_CURVE('',#429,#425,#217,.T.);
#538=EDGE_CURVE('',#430,#428,#218,.T.);
#539=EDGE_CURVE('',#429,#430,#219,.T.);
#540=EDGE_CURVE('',#431,#429,#220,.T.);
#541=EDGE_CURVE('',#432,#430,#221,.T.);
#542=EDGE_CURVE('',#431,#432,#222,.T.);
#543=EDGE_CURVE('',#426,#431,#223,.T.);
#544=EDGE_CURVE('',#427,#432,#224,.T.);
#545=EDGE_CURVE('',#433,#434,#225,.T.);
#546=EDGE_CURVE('',#433,#435,#226,.T.);
#547=EDGE_CURVE('',#436,#435,#227,.T.);
#548=EDGE_CURVE('',#434,#436,#228,.T.);
#549=EDGE_CURVE('',#434,#437,#229,.T.);
#550=EDGE_CURVE('',#438,#436,#230,.T.);
#551=EDGE_CURVE('',#437,#438,#231,.T.);
#552=EDGE_CURVE('',#437,#439,#232,.T.);
#553=EDGE_CURVE('',#440,#438,#233,.T.);
#554=EDGE_CURVE('',#439,#440,#234,.T.);
#555=EDGE_CURVE('',#439,#433,#235,.T.);
#556=EDGE_CURVE('',#435,#440,#236,.T.);
#557=EDGE_CURVE('',#441,#442,#237,.T.);
#558=EDGE_CURVE('',#441,#443,#238,.T.);
#559=EDGE_CURVE('',#444,#443,#239,.T.);
#560=EDGE_CURVE('',#442,#444,#240,.T.);
#561=EDGE_CURVE('',#442,#445,#241,.T.);
#562=EDGE_CURVE('',#446,#444,#242,.T.);
#563=EDGE_CURVE('',#445,#446,#243,.T.);
#564=EDGE_CURVE('',#445,#447,#244,.T.);
#565=EDGE_CURVE('',#448,#446,#245,.T.);
#566=EDGE_CURVE('',#447,#448,#246,.T.);
#567=EDGE_CURVE('',#447,#441,#247,.T.);
#568=EDGE_CURVE('',#443,#448,#248,.T.);
#569=ORIENTED_EDGE('',*,*,#449,.F.);
#570=ORIENTED_EDGE('',*,*,#450,.F.);
#571=ORIENTED_EDGE('',*,*,#451,.F.);
#572=ORIENTED_EDGE('',*,*,#452,.F.);
#573=ORIENTED_EDGE('',*,*,#453,.F.);
#574=ORIENTED_EDGE('',*,*,#454,.F.);
#575=ORIENTED_EDGE('',*,*,#455,.F.);
#576=ORIENTED_EDGE('',*,*,#456,.F.);
#577=ORIENTED_EDGE('',*,*,#453,.T.);
#578=ORIENTED_EDGE('',*,*,#457,.F.);
#579=ORIENTED_EDGE('',*,*,#458,.F.);
#580=ORIENTED_EDGE('',*,*,#459,.F.);
#581=ORIENTED_EDGE('',*,*,#449,.T.);
#582=ORIENTED_EDGE('',*,*,#460,.F.);
#583=ORIENTED_EDGE('',*,*,#461,.F.);
#584=ORIENTED_EDGE('',*,*,#462,.F.);
#585=ORIENTED_EDGE('',*,*,#452,.T.);
#586=ORIENTED_EDGE('',*,*,#463,.F.);
#587=ORIENTED_EDGE('',*,*,#464,.F.);
#588=ORIENTED_EDGE('',*,*,#465,.T.);
#589=ORIENTED_EDGE('',*,*,#466,.T.);
#590=ORIENTED_EDGE('',*,*,#467,.F.);
#591=ORIENTED_EDGE('',*,*,#454,.T.);
#592=ORIENTED_EDGE('',*,*,#459,.T.);
#593=ORIENTED_EDGE('',*,*,#468,.T.);
#594=ORIENTED_EDGE('',*,*,#469,.T.);
#595=ORIENTED_EDGE('',*,*,#470,.T.);
#596=ORIENTED_EDGE('',*,*,#460,.T.);
#597=ORIENTED_EDGE('',*,*,#451,.T.);
#598=ORIENTED_EDGE('',*,*,#471,.T.);
#599=ORIENTED_EDGE('',*,*,#472,.T.);
#600=ORIENTED_EDGE('',*,*,#463,.T.);
#601=ORIENTED_EDGE('',*,*,#455,.T.);
#602=ORIENTED_EDGE('',*,*,#467,.T.);
#603=ORIENTED_EDGE('',*,*,#473,.T.);
#604=ORIENTED_EDGE('',*,*,#474,.T.);
#605=ORIENTED_EDGE('',*,*,#475,.F.);
#606=ORIENTED_EDGE('',*,*,#461,.T.);
#607=ORIENTED_EDGE('',*,*,#470,.F.);
#608=ORIENTED_EDGE('',*,*,#476,.F.);
#609=ORIENTED_EDGE('',*,*,#477,.F.);
#610=ORIENTED_EDGE('',*,*,#476,.T.);
#611=ORIENTED_EDGE('',*,*,#469,.F.);
#612=ORIENTED_EDGE('',*,*,#478,.T.);
#613=ORIENTED_EDGE('',*,*,#479,.F.);
#614=ORIENTED_EDGE('',*,*,#478,.F.);
#615=ORIENTED_EDGE('',*,*,#468,.F.);
#616=ORIENTED_EDGE('',*,*,#458,.T.);
#617=ORIENTED_EDGE('',*,*,#480,.T.);
#618=ORIENTED_EDGE('',*,*,#464,.T.);
#619=ORIENTED_EDGE('',*,*,#472,.F.);
#620=ORIENTED_EDGE('',*,*,#481,.F.);
#621=ORIENTED_EDGE('',*,*,#450,.T.);
#622=ORIENTED_EDGE('',*,*,#462,.T.);
#623=ORIENTED_EDGE('',*,*,#475,.T.);
#624=ORIENTED_EDGE('',*,*,#477,.T.);
#625=ORIENTED_EDGE('',*,*,#479,.T.);
#626=ORIENTED_EDGE('',*,*,#457,.T.);
#627=ORIENTED_EDGE('',*,*,#456,.T.);
#628=ORIENTED_EDGE('',*,*,#474,.F.);
#629=ORIENTED_EDGE('',*,*,#482,.F.);
#630=ORIENTED_EDGE('',*,*,#483,.T.);
#631=ORIENTED_EDGE('',*,*,#481,.T.);
#632=ORIENTED_EDGE('',*,*,#471,.F.);
#633=ORIENTED_EDGE('',*,*,#484,.T.);
#634=ORIENTED_EDGE('',*,*,#482,.T.);
#635=ORIENTED_EDGE('',*,*,#473,.F.);
#636=ORIENTED_EDGE('',*,*,#466,.F.);
#637=ORIENTED_EDGE('',*,*,#465,.F.);
#638=ORIENTED_EDGE('',*,*,#480,.F.);
#639=ORIENTED_EDGE('',*,*,#483,.F.);
#640=ORIENTED_EDGE('',*,*,#484,.F.);
#641=ORIENTED_EDGE('',*,*,#485,.F.);
#642=ORIENTED_EDGE('',*,*,#486,.F.);
#643=ORIENTED_EDGE('',*,*,#487,.F.);
#644=ORIENTED_EDGE('',*,*,#488,.F.);
#645=ORIENTED_EDGE('',*,*,#489,.F.);
#646=ORIENTED_EDGE('',*,*,#490,.F.);
#647=ORIENTED_EDGE('',*,*,#491,.F.);
#648=ORIENTED_EDGE('',*,*,#492,.F.);
#649=ORIENTED_EDGE('',*,*,#489,.T.);
#650=ORIENTED_EDGE('',*,*,#493,.F.);
#651=ORIENTED_EDGE('',*,*,#494,.F.);
#652=ORIENTED_EDGE('',*,*,#495,.F.);
#653=ORIENTED_EDGE('',*,*,#485,.T.);
#654=ORIENTED_EDGE('',*,*,#496,.F.);
#655=ORIENTED_EDGE('',*,*,#497,.F.);
#656=ORIENTED_EDGE('',*,*,#498,.F.);
#657=ORIENTED_EDGE('',*,*,#488,.T.);
#658=ORIENTED_EDGE('',*,*,#499,.F.);
#659=ORIENTED_EDGE('',*,*,#500,.F.);
#660=ORIENTED_EDGE('',*,*,#501,.T.);
#661=ORIENTED_EDGE('',*,*,#502,.T.);
#662=ORIENTED_EDGE('',*,*,#503,.F.);
#663=ORIENTED_EDGE('',*,*,#490,.T.);
#664=ORIENTED_EDGE('',*,*,#495,.T.);
#665=ORIENTED_EDGE('',*,*,#504,.T.);
#666=ORIENTED_EDGE('',*,*,#505,.T.);
#667=ORIENTED_EDGE('',*,*,#506,.T.);
#668=ORIENTED_EDGE('',*,*,#496,.T.);
#669=ORIENTED_EDGE('',*,*,#487,.T.);
#670=ORIENTED_EDGE('',*,*,#507,.T.);
#671=ORIENTED_EDGE('',*,*,#508,.T.);
#672=ORIENTED_EDGE('',*,*,#499,.T.);
#673=ORIENTED_EDGE('',*,*,#491,.T.);
#674=ORIENTED_EDGE('',*,*,#503,.T.);
#675=ORIENTED_EDGE('',*,*,#509,.T.);
#676=ORIENTED_EDGE('',*,*,#510,.T.);
#677=ORIENTED_EDGE('',*,*,#511,.F.);
#678=ORIENTED_EDGE('',*,*,#497,.T.);
#679=ORIENTED_EDGE('',*,*,#506,.F.);
#680=ORIENTED_EDGE('',*,*,#512,.F.);
#681=ORIENTED_EDGE('',*,*,#513,.F.);
#682=ORIENTED_EDGE('',*,*,#512,.T.);
#683=ORIENTED_EDGE('',*,*,#505,.F.);
#684=ORIENTED_EDGE('',*,*,#514,.T.);
#685=ORIENTED_EDGE('',*,*,#515,.F.);
#686=ORIENTED_EDGE('',*,*,#514,.F.);
#687=ORIENTED_EDGE('',*,*,#504,.F.);
#688=ORIENTED_EDGE('',*,*,#494,.T.);
#689=ORIENTED_EDGE('',*,*,#516,.T.);
#690=ORIENTED_EDGE('',*,*,#500,.T.);
#691=ORIENTED_EDGE('',*,*,#508,.F.);
#692=ORIENTED_EDGE('',*,*,#517,.F.);
#693=ORIENTED_EDGE('',*,*,#486,.T.);
#694=ORIENTED_EDGE('',*,*,#498,.T.);
#695=ORIENTED_EDGE('',*,*,#511,.T.);
#696=ORIENTED_EDGE('',*,*,#513,.T.);
#697=ORIENTED_EDGE('',*,*,#515,.T.);
#698=ORIENTED_EDGE('',*,*,#493,.T.);
#699=ORIENTED_EDGE('',*,*,#492,.T.);
#700=ORIENTED_EDGE('',*,*,#510,.F.);
#701=ORIENTED_EDGE('',*,*,#518,.F.);
#702=ORIENTED_EDGE('',*,*,#519,.T.);
#703=ORIENTED_EDGE('',*,*,#517,.T.);
#704=ORIENTED_EDGE('',*,*,#507,.F.);
#705=ORIENTED_EDGE('',*,*,#520,.T.);
#706=ORIENTED_EDGE('',*,*,#518,.T.);
#707=ORIENTED_EDGE('',*,*,#509,.F.);
#708=ORIENTED_EDGE('',*,*,#502,.F.);
#709=ORIENTED_EDGE('',*,*,#501,.F.);
#710=ORIENTED_EDGE('',*,*,#516,.F.);
#711=ORIENTED_EDGE('',*,*,#519,.F.);
#712=ORIENTED_EDGE('',*,*,#520,.F.);
#713=ORIENTED_EDGE('',*,*,#521,.T.);
#714=ORIENTED_EDGE('',*,*,#522,.T.);
#715=ORIENTED_EDGE('',*,*,#523,.F.);
#716=ORIENTED_EDGE('',*,*,#524,.F.);
#717=ORIENTED_EDGE('',*,*,#525,.T.);
#718=ORIENTED_EDGE('',*,*,#524,.T.);
#719=ORIENTED_EDGE('',*,*,#526,.F.);
#720=ORIENTED_EDGE('',*,*,#527,.F.);
#721=ORIENTED_EDGE('',*,*,#528,.T.);
#722=ORIENTED_EDGE('',*,*,#527,.T.);
#723=ORIENTED_EDGE('',*,*,#529,.F.);
#724=ORIENTED_EDGE('',*,*,#530,.F.);
#725=ORIENTED_EDGE('',*,*,#531,.T.);
#726=ORIENTED_EDGE('',*,*,#530,.T.);
#727=ORIENTED_EDGE('',*,*,#532,.F.);
#728=ORIENTED_EDGE('',*,*,#522,.F.);
#729=ORIENTED_EDGE('',*,*,#532,.T.);
#730=ORIENTED_EDGE('',*,*,#529,.T.);
#731=ORIENTED_EDGE('',*,*,#526,.T.);
#732=ORIENTED_EDGE('',*,*,#523,.T.);
#733=ORIENTED_EDGE('',*,*,#531,.F.);
#734=ORIENTED_EDGE('',*,*,#521,.F.);
#735=ORIENTED_EDGE('',*,*,#525,.F.);
#736=ORIENTED_EDGE('',*,*,#528,.F.);
#737=ORIENTED_EDGE('',*,*,#533,.T.);
#738=ORIENTED_EDGE('',*,*,#534,.T.);
#739=ORIENTED_EDGE('',*,*,#535,.F.);
#740=ORIENTED_EDGE('',*,*,#536,.F.);
#741=ORIENTED_EDGE('',*,*,#537,.T.);
#742=ORIENTED_EDGE('',*,*,#536,.T.);
#743=ORIENTED_EDGE('',*,*,#538,.F.);
#744=ORIENTED_EDGE('',*,*,#539,.F.);
#745=ORIENTED_EDGE('',*,*,#540,.T.);
#746=ORIENTED_EDGE('',*,*,#539,.T.);
#747=ORIENTED_EDGE('',*,*,#541,.F.);
#748=ORIENTED_EDGE('',*,*,#542,.F.);
#749=ORIENTED_EDGE('',*,*,#543,.T.);
#750=ORIENTED_EDGE('',*,*,#542,.T.);
#751=ORIENTED_EDGE('',*,*,#544,.F.);
#752=ORIENTED_EDGE('',*,*,#534,.F.);
#753=ORIENTED_EDGE('',*,*,#544,.T.);
#754=ORIENTED_EDGE('',*,*,#541,.T.);
#755=ORIENTED_EDGE('',*,*,#538,.T.);
#756=ORIENTED_EDGE('',*,*,#535,.T.);
#757=ORIENTED_EDGE('',*,*,#543,.F.);
#758=ORIENTED_EDGE('',*,*,#533,.F.);
#759=ORIENTED_EDGE('',*,*,#537,.F.);
#760=ORIENTED_EDGE('',*,*,#540,.F.);
#761=ORIENTED_EDGE('',*,*,#545,.F.);
#762=ORIENTED_EDGE('',*,*,#546,.T.);
#763=ORIENTED_EDGE('',*,*,#547,.F.);
#764=ORIENTED_EDGE('',*,*,#548,.F.);
#765=ORIENTED_EDGE('',*,*,#549,.F.);
#766=ORIENTED_EDGE('',*,*,#548,.T.);
#767=ORIENTED_EDGE('',*,*,#550,.F.);
#768=ORIENTED_EDGE('',*,*,#551,.F.);
#769=ORIENTED_EDGE('',*,*,#552,.F.);
#770=ORIENTED_EDGE('',*,*,#551,.T.);
#771=ORIENTED_EDGE('',*,*,#553,.F.);
#772=ORIENTED_EDGE('',*,*,#554,.F.);
#773=ORIENTED_EDGE('',*,*,#555,.F.);
#774=ORIENTED_EDGE('',*,*,#554,.T.);
#775=ORIENTED_EDGE('',*,*,#556,.F.);
#776=ORIENTED_EDGE('',*,*,#546,.F.);
#777=ORIENTED_EDGE('',*,*,#555,.T.);
#778=ORIENTED_EDGE('',*,*,#545,.T.);
#779=ORIENTED_EDGE('',*,*,#549,.T.);
#780=ORIENTED_EDGE('',*,*,#552,.T.);
#781=ORIENTED_EDGE('',*,*,#556,.T.);
#782=ORIENTED_EDGE('',*,*,#553,.T.);
#783=ORIENTED_EDGE('',*,*,#550,.T.);
#784=ORIENTED_EDGE('',*,*,#547,.T.);
#785=ORIENTED_EDGE('',*,*,#557,.F.);
#786=ORIENTED_EDGE('',*,*,#558,.T.);
#787=ORIENTED_EDGE('',*,*,#559,.F.);
#788=ORIENTED_EDGE('',*,*,#560,.F.);
#789=ORIENTED_EDGE('',*,*,#561,.F.);
#790=ORIENTED_EDGE('',*,*,#560,.T.);
#791=ORIENTED_EDGE('',*,*,#562,.F.);
#792=ORIENTED_EDGE('',*,*,#563,.F.);
#793=ORIENTED_EDGE('',*,*,#564,.F.);
#794=ORIENTED_EDGE('',*,*,#563,.T.);
#795=ORIENTED_EDGE('',*,*,#565,.F.);
#796=ORIENTED_EDGE('',*,*,#566,.F.);
#797=ORIENTED_EDGE('',*,*,#567,.F.);
#798=ORIENTED_EDGE('',*,*,#566,.T.);
#799=ORIENTED_EDGE('',*,*,#568,.F.);
#800=ORIENTED_EDGE('',*,*,#558,.F.);
#801=ORIENTED_EDGE('',*,*,#567,.T.);
#802=ORIENTED_EDGE('',*,*,#557,.T.);
#803=ORIENTED_EDGE('',*,*,#561,.T.);
#804=ORIENTED_EDGE('',*,*,#564,.T.);
#805=ORIENTED_EDGE('',*,*,#568,.T.);
#806=ORIENTED_EDGE('',*,*,#565,.T.);
#807=ORIENTED_EDGE('',*,*,#562,.T.);
#808=ORIENTED_EDGE('',*,*,#559,.T.);
#809=PLANE('',#932);
#810=PLANE('',#933);
#811=PLANE('',#934);
#812=PLANE('',#935);
#813=PLANE('',#936);
#814=PLANE('',#937);
#815=PLANE('',#938);
#816=PLANE('',#939);
#817=PLANE('',#940);
#818=PLANE('',#941);
#819=PLANE('',#942);
#820=PLANE('',#943);
#821=PLANE('',#944);
#822=PLANE('',#945);
#823=PLANE('',#946);
#824=PLANE('',#947);
#825=PLANE('',#948);
#826=PLANE('',#949);
#827=PLANE('',#950);
#828=PLANE('',#951);
#829=PLANE('',#952);
#830=PLANE('',#953);
#831=PLANE('',#954);
#832=PLANE('',#955);
#833=PLANE('',#956);
#834=PLANE('',#957);
#835=PLANE('',#958);
#836=PLANE('',#959);
#837=PLANE('',#960);
#838=PLANE('',#961);
#839=PLANE('',#962);
#840=PLANE('',#963);
#841=PLANE('',#964);
#842=PLANE('',#965);
#843=PLANE('',#966);
#844=PLANE('',#967);
#845=PLANE('',#968);
#846=PLANE('',#969);
#847=PLANE('',#970);
#848=PLANE('',#971);
#849=PLANE('',#972);
#850=PLANE('',#973);
#851=PLANE('',#974);
#852=PLANE('',#975);
#853=PLANE('',#976);
#854=PLANE('',#977);
#855=PLANE('',#978);
#856=PLANE('',#979);
#857=PLANE('',#980);
#858=PLANE('',#981);
#859=PLANE('',#982);
#860=PLANE('',#983);
#861=ADVANCED_FACE('',(#25),#809,.F.);
#862=ADVANCED_FACE('',(#26),#810,.T.);
#863=ADVANCED_FACE('',(#27),#811,.F.);
#864=ADVANCED_FACE('',(#28),#812,.F.);
#865=ADVANCED_FACE('',(#29),#813,.T.);
#866=ADVANCED_FACE('',(#30),#814,.T.);
#867=ADVANCED_FACE('',(#31),#815,.T.);
#868=ADVANCED_FACE('',(#32),#816,.F.);
#869=ADVANCED_FACE('',(#33),#817,.T.);
#870=ADVANCED_FACE('',(#34),#818,.F.);
#871=ADVANCED_FACE('',(#35),#819,.T.);
#872=ADVANCED_FACE('',(#36),#820,.T.);
#873=ADVANCED_FACE('',(#37),#821,.T.);
#874=ADVANCED_FACE('',(#38),#822,.F.);
#875=ADVANCED_FACE('',(#39),#823,.F.);
#876=ADVANCED_FACE('',(#40),#824,.F.);
#877=ADVANCED_FACE('',(#41),#825,.F.);
#878=ADVANCED_FACE('',(#42),#826,.F.);
#879=ADVANCED_FACE('',(#43),#827,.T.);
#880=ADVANCED_FACE('',(#44),#828,.T.);
#881=ADVANCED_FACE('',(#45),#829,.T.);
#882=ADVANCED_FACE('',(#46),#830,.F.);
#883=ADVANCED_FACE('',(#47),#831,.T.);
#884=ADVANCED_FACE('',(#48),#832,.F.);
#885=ADVANCED_FACE('',(#49),#833,.T.);
#886=ADVANCED_FACE('',(#50),#834,.T.);
#887=ADVANCED_FACE('',(#51),#835,.T.);
#888=ADVANCED_FACE('',(#52),#836,.F.);
#889=ADVANCED_FACE('',(#53),#837,.T.);
#890=ADVANCED_FACE('',(#54),#838,.T.);
#891=ADVANCED_FACE('',(#55),#839,.T.);
#892=ADVANCED_FACE('',(#56),#840,.T.);
#893=ADVANCED_FACE('',(#57),#841,.T.);
#894=ADVANCED_FACE('',(#58),#842,.F.);
#895=ADVANCED_FACE('',(#59),#843,.T.);
#896=ADVANCED_FACE('',(#60),#844,.T.);
#897=ADVANCED_FACE('',(#61),#845,.T.);
#898=ADVANCED_FACE('',(#62),#846,.T.);
#899=ADVANCED_FACE('',(#63),#847,.T.);
#900=ADVANCED_FACE('',(#64),#848,.F.);
#901=ADVANCED_FACE('',(#65),#849,.T.);
#902=ADVANCED_FACE('',(#66),#850,.T.);
#903=ADVANCED_FACE('',(#67),#851,.T.);
#904=ADVANCED_FACE('',(#68),#852,.T.);
#905=ADVANCED_FACE('',(#69),#853,.T.);
#906=ADVANCED_FACE('',(#70),#854,.T.);
#907=ADVANCED_FACE('',(#71),#855,.T.);
#908=ADVANCED_FACE('',(#72),#856,.T.);
#909=ADVANCED_FACE('',(#73),#857,.T.);
#910=ADVANCED_FACE('',(#74),#858,.T.);
#911=ADVANCED_FACE('',(#75),#859,.T.);
#912=ADVANCED_FACE('',(#76),#860,.T.);
#913=CLOSED_SHELL('',(#861,#862,#863,#864,#865,#866,#867,#868,#869,#870,
#871,#872,#873,#874));
#914=CLOSED_SHELL('',(#875,#876,#877,#878,#879,#880,#881,#882,#883,#884,
#885,#886,#887,#888));
#915=CLOSED_SHELL('',(#889,#890,#891,#892,#893,#894));
#916=CLOSED_SHELL('',(#895,#896,#897,#898,#899,#900));
#917=CLOSED_SHELL('',(#901,#902,#903,#904,#905,#906));
#918=CLOSED_SHELL('',(#907,#908,#909,#910,#911,#912));
#919=DERIVED_UNIT_ELEMENT(#921,1.);
#920=DERIVED_UNIT_ELEMENT(#1468,-3.);
#921=(
MASS_UNIT()
NAMED_UNIT(*)
SI_UNIT(.KILO.,.GRAM.)
);
#922=DERIVED_UNIT((#919,#920));
#923=MEASURE_REPRESENTATION_ITEM('density measure',
POSITIVE_RATIO_MEASURE(7850.),#922);
#924=PROPERTY_DEFINITION_REPRESENTATION(#929,#926);
#925=PROPERTY_DEFINITION_REPRESENTATION(#930,#927);
#926=REPRESENTATION('material name',(#928),#1465);
#927=REPRESENTATION('density',(#923),#1465);
#928=DESCRIPTIVE_REPRESENTATION_ITEM('Steel','Steel');
#929=PROPERTY_DEFINITION('material property','material name',#1475);
#930=PROPERTY_DEFINITION('material property','density of part',#1475);
#931=AXIS2_PLACEMENT_3D('',#1210,#984,#985);
#932=AXIS2_PLACEMENT_3D('',#1211,#986,#987);
#933=AXIS2_PLACEMENT_3D('',#1220,#992,#993);
#934=AXIS2_PLACEMENT_3D('',#1229,#998,#999);
#935=AXIS2_PLACEMENT_3D('',#1235,#1003,#1004);
#936=AXIS2_PLACEMENT_3D('',#1241,#1008,#1009);
#937=AXIS2_PLACEMENT_3D('',#1256,#1018,#1019);
#938=AXIS2_PLACEMENT_3D('',#1260,#1022,#1023);
#939=AXIS2_PLACEMENT_3D('',#1264,#1026,#1027);
#940=AXIS2_PLACEMENT_3D('',#1268,#1030,#1031);
#941=AXIS2_PLACEMENT_3D('',#1272,#1034,#1035);
#942=AXIS2_PLACEMENT_3D('',#1274,#1037,#1038);
#943=AXIS2_PLACEMENT_3D('',#1278,#1041,#1042);
#944=AXIS2_PLACEMENT_3D('',#1282,#1045,#1046);
#945=AXIS2_PLACEMENT_3D('',#1284,#1048,#1049);
#946=AXIS2_PLACEMENT_3D('',#1285,#1050,#1051);
#947=AXIS2_PLACEMENT_3D('',#1294,#1056,#1057);
#948=AXIS2_PLACEMENT_3D('',#1303,#1062,#1063);
#949=AXIS2_PLACEMENT_3D('',#1309,#1067,#1068);
#950=AXIS2_PLACEMENT_3D('',#1315,#1072,#1073);
#951=AXIS2_PLACEMENT_3D('',#1330,#1082,#1083);
#952=AXIS2_PLACEMENT_3D('',#1334,#1086,#1087);
#953=AXIS2_PLACEMENT_3D('',#1338,#1090,#1091);
#954=AXIS2_PLACEMENT_3D('',#1342,#1094,#1095);
#955=AXIS2_PLACEMENT_3D('',#1346,#1098,#1099);
#956=AXIS2_PLACEMENT_3D('',#1348,#1101,#1102);
#957=AXIS2_PLACEMENT_3D('',#1352,#1105,#1106);
#958=AXIS2_PLACEMENT_3D('',#1356,#1109,#1110);
#959=AXIS2_PLACEMENT_3D('',#1358,#1112,#1113);
#960=AXIS2_PLACEMENT_3D('',#1359,#1114,#1115);
#961=AXIS2_PLACEMENT_3D('',#1368,#1120,#1121);
#962=AXIS2_PLACEMENT_3D('',#1374,#1125,#1126);
#963=AXIS2_PLACEMENT_3D('',#1380,#1130,#1131);
#964=AXIS2_PLACEMENT_3D('',#1383,#1134,#1135);
#965=AXIS2_PLACEMENT_3D('',#1384,#1136,#1137);
#966=AXIS2_PLACEMENT_3D('',#1385,#1138,#1139);
#967=AXIS2_PLACEMENT_3D('',#1394,#1144,#1145);
#968=AXIS2_PLACEMENT_3D('',#1400,#1149,#1150);
#969=AXIS2_PLACEMENT_3D('',#1406,#1154,#1155);
#970=AXIS2_PLACEMENT_3D('',#1409,#1158,#1159);
#971=AXIS2_PLACEMENT_3D('',#1410,#1160,#1161);
#972=AXIS2_PLACEMENT_3D('',#1411,#1162,#1163);
#973=AXIS2_PLACEMENT_3D('',#1420,#1168,#1169);
#974=AXIS2_PLACEMENT_3D('',#1426,#1173,#1174);
#975=AXIS2_PLACEMENT_3D('',#1432,#1178,#1179);
#976=AXIS2_PLACEMENT_3D('',#1435,#1182,#1183);
#977=AXIS2_PLACEMENT_3D('',#1436,#1184,#1185);
#978=AXIS2_PLACEMENT_3D('',#1437,#1186,#1187);
#979=AXIS2_PLACEMENT_3D('',#1446,#1192,#1193);
#980=AXIS2_PLACEMENT_3D('',#1452,#1197,#1198);
#981=AXIS2_PLACEMENT_3D('',#1458,#1202,#1203);
#982=AXIS2_PLACEMENT_3D('',#1461,#1206,#1207);
#983=AXIS2_PLACEMENT_3D('',#1462,#1208,#1209);
#984=DIRECTION('axis',(0.,0.,1.));
#985=DIRECTION('refdir',(1.,0.,0.));
#986=DIRECTION('center_axis',(0.,1.,0.));
#987=DIRECTION('ref_axis',(0.,0.,1.));
#988=DIRECTION('',(-1.,0.,0.));
#989=DIRECTION('',(0.,0.,-1.));
#990=DIRECTION('',(1.,0.,0.));
#991=DIRECTION('',(0.,0.,1.));
#992=DIRECTION('center_axis',(0.,1.,0.));
#993=DIRECTION('ref_axis',(1.,0.,0.));
#994=DIRECTION('',(1.,0.,0.));
#995=DIRECTION('',(0.,0.,-1.));
#996=DIRECTION('',(-1.,0.,0.));
#997=DIRECTION('',(0.,0.,1.));
#998=DIRECTION('center_axis',(0.,0.,1.));
#999=DIRECTION('ref_axis',(1.,0.,0.));
#1000=DIRECTION('',(0.,1.,0.));
#1001=DIRECTION('',(1.,0.,0.));
#1002=DIRECTION('',(0.,-1.,0.));
#1003=DIRECTION('center_axis',(0.,0.,1.));
#1004=DIRECTION('ref_axis',(1.,0.,0.));
#1005=DIRECTION('',(0.,-1.,0.));
#1006=DIRECTION('',(-1.,0.,0.));
#1007=DIRECTION('',(0.,1.,0.));
#1008=DIRECTION('center_axis',(-1.,0.,0.));
#1009=DIRECTION('ref_axis',(0.,-1.,0.));
#1010=DIRECTION('',(0.,-1.,0.));
#1011=DIRECTION('',(0.,0.,1.));
#1012=DIRECTION('',(0.,-1.,0.));
#1013=DIRECTION('',(0.,0.,1.));
#1014=DIRECTION('',(0.,-1.,0.));
#1015=DIRECTION('',(0.,0.,-1.));
#1016=DIRECTION('',(0.,1.,0.));
#1017=DIRECTION('',(0.,0.,1.));
#1018=DIRECTION('center_axis',(0.,0.,1.));
#1019=DIRECTION('ref_axis',(1.,0.,0.));
#1020=DIRECTION('',(0.,1.,0.));
#1021=DIRECTION('',(-1.,0.,0.));
#1022=DIRECTION('center_axis',(0.,0.,1.));
#1023=DIRECTION('ref_axis',(1.,0.,0.));
#1024=DIRECTION('',(1.,0.,0.));
#1025=DIRECTION('',(0.,1.,0.));
#1026=DIRECTION('center_axis',(0.,1.,0.));
#1027=DIRECTION('ref_axis',(-1.,0.,0.));
#1028=DIRECTION('',(0.,0.,-1.));
#1029=DIRECTION('',(-1.,0.,0.));
#1030=DIRECTION('center_axis',(0.,0.,1.));
#1031=DIRECTION('ref_axis',(1.,0.,0.));
#1032=DIRECTION('',(0.,-1.,0.));
#1033=DIRECTION('',(1.,0.,0.));
#1034=DIRECTION('center_axis',(0.,-1.,0.));
#1035=DIRECTION('ref_axis',(1.,0.,0.));
#1036=DIRECTION('',(0.,0.,1.));
#1037=DIRECTION('center_axis',(0.,1.,0.));
#1038=DIRECTION('ref_axis',(-1.,0.,0.));
#1039=DIRECTION('',(-1.,0.,0.));
#1040=DIRECTION('',(0.,0.,1.));
#1041=DIRECTION('center_axis',(1.,0.,0.));
#1042=DIRECTION('ref_axis',(0.,1.,0.));
#1043=DIRECTION('',(0.,0.,1.));
#1044=DIRECTION('',(0.,1.,0.));
#1045=DIRECTION('center_axis',(0.,-1.,0.));
#1046=DIRECTION('ref_axis',(1.,0.,0.));
#1047=DIRECTION('',(1.,0.,0.));
#1048=DIRECTION('center_axis',(0.,0.,1.));
#1049=DIRECTION('ref_axis',(1.,0.,0.));
#1050=DIRECTION('center_axis',(0.,1.,0.));
#1051=DIRECTION('ref_axis',(1.,0.,0.));
#1052=DIRECTION('',(-1.,0.,0.));
#1053=DIRECTION('',(0.,0.,-1.));
#1054=DIRECTION('',(1.,0.,0.));
#1055=DIRECTION('',(0.,0.,1.));
#1056=DIRECTION('center_axis',(0.,-1.,0.));
#1057=DIRECTION('ref_axis',(0.,0.,-1.));
#1058=DIRECTION('',(1.,0.,0.));
#1059=DIRECTION('',(0.,0.,-1.));
#1060=DIRECTION('',(-1.,0.,0.));
#1061=DIRECTION('',(0.,0.,1.));
#1062=DIRECTION('center_axis',(0.,0.,1.));
#1063=DIRECTION('ref_axis',(1.,0.,0.));
#1064=DIRECTION('',(0.,1.,0.));
#1065=DIRECTION('',(1.,0.,0.));
#1066=DIRECTION('',(0.,-1.,0.));
#1067=DIRECTION('center_axis',(0.,0.,1.));
#1068=DIRECTION('ref_axis',(1.,0.,0.));
#1069=DIRECTION('',(0.,-1.,0.));
#1070=DIRECTION('',(-1.,0.,0.));
#1071=DIRECTION('',(0.,1.,0.));
#1072=DIRECTION('center_axis',(-1.,0.,0.));
#1073=DIRECTION('ref_axis',(0.,-1.,0.));
#1074=DIRECTION('',(0.,-1.,0.));
#1075=DIRECTION('',(0.,0.,1.));
#1076=DIRECTION('',(0.,-1.,0.));
#1077=DIRECTION('',(0.,0.,1.));
#1078=DIRECTION('',(0.,-1.,0.));
#1079=DIRECTION('',(0.,0.,-1.));
#1080=DIRECTION('',(0.,1.,0.));
#1081=DIRECTION('',(0.,0.,1.));
#1082=DIRECTION('center_axis',(0.,0.,1.));
#1083=DIRECTION('ref_axis',(1.,0.,0.));
#1084=DIRECTION('',(0.,1.,0.));
#1085=DIRECTION('',(-1.,0.,0.));
#1086=DIRECTION('center_axis',(0.,0.,1.));
#1087=DIRECTION('ref_axis',(1.,0.,0.));
#1088=DIRECTION('',(1.,0.,0.));
#1089=DIRECTION('',(0.,1.,0.));
#1090=DIRECTION('center_axis',(0.,1.,0.));
#1091=DIRECTION('ref_axis',(-1.,0.,0.));
#1092=DIRECTION('',(0.,0.,-1.));
#1093=DIRECTION('',(-1.,0.,0.));
#1094=DIRECTION('center_axis',(0.,0.,1.));
#1095=DIRECTION('ref_axis',(1.,0.,0.));
#1096=DIRECTION('',(0.,-1.,0.));
#1097=DIRECTION('',(1.,0.,0.));
#1098=DIRECTION('center_axis',(0.,-1.,0.));
#1099=DIRECTION('ref_axis',(1.,0.,0.));
#1100=DIRECTION('',(0.,0.,1.));
#1101=DIRECTION('center_axis',(0.,1.,0.));
#1102=DIRECTION('ref_axis',(-1.,0.,0.));
#1103=DIRECTION('',(-1.,0.,0.));
#1104=DIRECTION('',(0.,0.,1.));
#1105=DIRECTION('center_axis',(1.,0.,0.));
#1106=DIRECTION('ref_axis',(0.,1.,0.));
#1107=DIRECTION('',(0.,0.,1.));
#1108=DIRECTION('',(0.,1.,0.));
#1109=DIRECTION('center_axis',(0.,-1.,0.));
#1110=DIRECTION('ref_axis',(1.,0.,0.));
#1111=DIRECTION('',(1.,0.,0.));
#1112=DIRECTION('center_axis',(0.,0.,1.));
#1113=DIRECTION('ref_axis',(1.,0.,0.));
#1114=DIRECTION('center_axis',(0.,0.,-1.));
#1115=DIRECTION('ref_axis',(-1.,0.,0.));
#1116=DIRECTION('',(-1.,0.,0.));
#1117=DIRECTION('',(0.,1.,0.));
#1118=DIRECTION('',(-1.,0.,0.));
#1119=DIRECTION('',(0.,1.,0.));
#1120=DIRECTION('center_axis',(1.,0.,0.));
#1121=DIRECTION('ref_axis',(0.,0.,-1.));
#1122=DIRECTION('',(0.,0.,-1.));
#1123=DIRECTION('',(0.,0.,-1.));
#1124=DIRECTION('',(0.,1.,0.));
#1125=DIRECTION('center_axis',(0.,0.,1.));
#1126=DIRECTION('ref_axis',(1.,0.,0.));
#1127=DIRECTION('',(1.,0.,0.));
#1128=DIRECTION('',(1.,0.,0.));
#1129=DIRECTION('',(0.,1.,0.));
#1130=DIRECTION('center_axis',(-1.,0.,0.));
#1131=DIRECTION('ref_axis',(0.,0.,1.));
#1132=DIRECTION('',(0.,0.,1.));
#1133=DIRECTION('',(0.,0.,1.));
#1134=DIRECTION('center_axis',(0.,1.,0.));
#1135=DIRECTION('ref_axis',(0.,0.,1.));
#1136=DIRECTION('center_axis',(0.,1.,0.));
#1137=DIRECTION('ref_axis',(1.,0.,0.));
#1138=DIRECTION('center_axis',(0.,0.,-1.));
#1139=DIRECTION('ref_axis',(-1.,0.,0.));
#1140=DIRECTION('',(-1.,0.,0.));
#1141=DIRECTION('',(0.,1.,0.));
#1142=DIRECTION('',(-1.,0.,0.));
#1143=DIRECTION('',(0.,1.,0.));
#1144=DIRECTION('center_axis',(1.,0.,0.));
#1145=DIRECTION('ref_axis',(0.,0.,-1.));
#1146=DIRECTION('',(0.,0.,-1.));
#1147=DIRECTION('',(0.,0.,-1.));
#1148=DIRECTION('',(0.,1.,0.));
#1149=DIRECTION('center_axis',(0.,0.,1.));
#1150=DIRECTION('ref_axis',(1.,0.,0.));
#1151=DIRECTION('',(1.,0.,0.));
#1152=DIRECTION('',(1.,0.,0.));
#1153=DIRECTION('',(0.,1.,0.));
#1154=DIRECTION('center_axis',(-1.,0.,0.));
#1155=DIRECTION('ref_axis',(0.,0.,1.));
#1156=DIRECTION('',(0.,0.,1.));
#1157=DIRECTION('',(0.,0.,1.));
#1158=DIRECTION('center_axis',(0.,1.,0.));
#1159=DIRECTION('ref_axis',(0.,0.,1.));
#1160=DIRECTION('center_axis',(0.,1.,0.));
#1161=DIRECTION('ref_axis',(1.,0.,0.));
#1162=DIRECTION('center_axis',(0.,0.,1.));
#1163=DIRECTION('ref_axis',(-1.,0.,0.));
#1164=DIRECTION('',(1.,0.,0.));
#1165=DIRECTION('',(0.,-1.,0.));
#1166=DIRECTION('',(-1.,0.,0.));
#1167=DIRECTION('',(0.,-1.,0.));
#1168=DIRECTION('center_axis',(1.,0.,0.));
#1169=DIRECTION('ref_axis',(0.,0.,1.));
#1170=DIRECTION('',(0.,0.,-1.));
#1171=DIRECTION('',(0.,0.,1.));
#1172=DIRECTION('',(0.,-1.,0.));
#1173=DIRECTION('center_axis',(0.,0.,-1.));
#1174=DIRECTION('ref_axis',(1.,0.,0.));
#1175=DIRECTION('',(-1.,0.,0.));
#1176=DIRECTION('',(1.,0.,0.));
#1177=DIRECTION('',(0.,-1.,0.));
#1178=DIRECTION('center_axis',(-1.,0.,0.));
#1179=DIRECTION('ref_axis',(0.,0.,-1.));
#1180=DIRECTION('',(0.,0.,1.));
#1181=DIRECTION('',(0.,0.,-1.));
#1182=DIRECTION('center_axis',(0.,1.,0.));
#1183=DIRECTION('ref_axis',(1.,0.,0.));
#1184=DIRECTION('center_axis',(0.,-1.,0.));
#1185=DIRECTION('ref_axis',(0.,0.,-1.));
#1186=DIRECTION('center_axis',(0.,0.,1.));
#1187=DIRECTION('ref_axis',(-1.,0.,0.));
#1188=DIRECTION('',(1.,0.,0.));
#1189=DIRECTION('',(0.,-1.,0.));
#1190=DIRECTION('',(-1.,0.,0.));
#1191=DIRECTION('',(0.,-1.,0.));
#1192=DIRECTION('center_axis',(1.,0.,0.));
#1193=DIRECTION('ref_axis',(0.,0.,1.));
#1194=DIRECTION('',(0.,0.,-1.));
#1195=DIRECTION('',(0.,0.,1.));
#1196=DIRECTION('',(0.,-1.,0.));
#1197=DIRECTION('center_axis',(0.,0.,-1.));
#1198=DIRECTION('ref_axis',(1.,0.,0.));
#1199=DIRECTION('',(-1.,0.,0.));
#1200=DIRECTION('',(1.,0.,0.));
#1201=DIRECTION('',(0.,-1.,0.));
#1202=DIRECTION('center_axis',(-1.,0.,0.));
#1203=DIRECTION('ref_axis',(0.,0.,-1.));
#1204=DIRECTION('',(0.,0.,1.));
#1205=DIRECTION('',(0.,0.,-1.));
#1206=DIRECTION('center_axis',(0.,1.,0.));
#1207=DIRECTION('ref_axis',(1.,0.,0.));
#1208=DIRECTION('center_axis',(0.,-1.,0.));
#1209=DIRECTION('ref_axis',(0.,0.,-1.));
#1210=CARTESIAN_POINT('',(0.,0.,0.));
#1211=CARTESIAN_POINT('Origin',(900.,90.,0.));
#1212=CARTESIAN_POINT('',(1800.,90.,16.));
#1213=CARTESIAN_POINT('',(0.,90.,16.));
#1214=CARTESIAN_POINT('',(900.,90.,16.));
#1215=CARTESIAN_POINT('',(1800.,90.,20.));
#1216=CARTESIAN_POINT('',(1800.,90.,-22.5));
#1217=CARTESIAN_POINT('',(0.,90.,20.));
#1218=CARTESIAN_POINT('',(900.,90.,20.));
#1219=CARTESIAN_POINT('',(0.,90.,-22.5));
#1220=CARTESIAN_POINT('Origin',(900.,67.,0.));
#1221=CARTESIAN_POINT('',(0.,67.,16.));
#1222=CARTESIAN_POINT('',(1800.,67.,16.));
#1223=CARTESIAN_POINT('',(900.,67.,16.));
#1224=CARTESIAN_POINT('',(0.,67.,20.));
#1225=CARTESIAN_POINT('',(0.,67.,-22.5));
#1226=CARTESIAN_POINT('',(1800.,67.,20.));
#1227=CARTESIAN_POINT('',(900.,67.,20.));
#1228=CARTESIAN_POINT('',(1800.,67.,-22.5));
#1229=CARTESIAN_POINT('Origin',(900.,80.,16.));
#1230=CARTESIAN_POINT('',(1800.,61.5,16.));
#1231=CARTESIAN_POINT('',(1800.,68.75,16.));
#1232=CARTESIAN_POINT('',(0.,61.5,16.));
#1233=CARTESIAN_POINT('',(-10.,61.5,16.));
#1234=CARTESIAN_POINT('',(0.,91.25,16.));
#1235=CARTESIAN_POINT('Origin',(900.,80.,16.));
#1236=CARTESIAN_POINT('',(0.,98.5,16.));
#1237=CARTESIAN_POINT('',(0.,91.25,16.));
#1238=CARTESIAN_POINT('',(1800.,98.5,16.));
#1239=CARTESIAN_POINT('',(1810.,98.5,16.));
#1240=CARTESIAN_POINT('',(1800.,68.75,16.));
#1241=CARTESIAN_POINT('Origin',(0.,102.5,-45.));
#1242=CARTESIAN_POINT('',(0.,102.5,20.));
#1243=CARTESIAN_POINT('',(0.,102.5,20.));
#1244=CARTESIAN_POINT('',(0.,102.5,-45.));
#1245=CARTESIAN_POINT('',(0.,102.5,-45.));
#1246=CARTESIAN_POINT('',(0.,57.5,-45.));
#1247=CARTESIAN_POINT('',(0.,102.5,-45.));
#1248=CARTESIAN_POINT('',(0.,57.5,20.));
#1249=CARTESIAN_POINT('',(0.,57.5,-45.));
#1250=CARTESIAN_POINT('',(0.,102.5,20.));
#1251=CARTESIAN_POINT('',(0.,61.5,-41.));
#1252=CARTESIAN_POINT('',(0.,61.5,-43.));
#1253=CARTESIAN_POINT('',(0.,98.5,-41.));
#1254=CARTESIAN_POINT('',(0.,91.25,-41.));
#1255=CARTESIAN_POINT('',(0.,98.5,-43.));
#1256=CARTESIAN_POINT('Origin',(900.,80.,20.));
#1257=CARTESIAN_POINT('',(1800.,102.5,20.));
#1258=CARTESIAN_POINT('',(1800.,57.5,20.));
#1259=CARTESIAN_POINT('',(1800.,102.5,20.));
#1260=CARTESIAN_POINT('Origin',(900.,80.,20.));
#1261=CARTESIAN_POINT('',(1800.,57.5,20.));
#1262=CARTESIAN_POINT('',(0.,57.5,20.));
#1263=CARTESIAN_POINT('',(1800.,57.5,20.));
#1264=CARTESIAN_POINT('Origin',(1810.,98.5,-41.));
#1265=CARTESIAN_POINT('',(1800.,98.5,-41.));
#1266=CARTESIAN_POINT('',(1800.,98.5,-43.));
#1267=CARTESIAN_POINT('',(1810.,98.5,-41.));
#1268=CARTESIAN_POINT('Origin',(900.,80.,-41.));
#1269=CARTESIAN_POINT('',(1800.,61.5,-41.));
#1270=CARTESIAN_POINT('',(1800.,68.75,-41.));
#1271=CARTESIAN_POINT('',(-10.,61.5,-41.));
#1272=CARTESIAN_POINT('Origin',(-10.,61.5,-41.));
#1273=CARTESIAN_POINT('',(1800.,61.5,-43.));
#1274=CARTESIAN_POINT('Origin',(1800.,102.5,-45.));
#1275=CARTESIAN_POINT('',(1800.,102.5,-45.));
#1276=CARTESIAN_POINT('',(1800.,102.5,-45.));
#1277=CARTESIAN_POINT('',(1800.,102.5,-45.));
#1278=CARTESIAN_POINT('Origin',(1800.,57.5,-45.));
#1279=CARTESIAN_POINT('',(1800.,57.5,-45.));
#1280=CARTESIAN_POINT('',(1800.,57.5,-45.));
#1281=CARTESIAN_POINT('',(1800.,57.5,-45.));
#1282=CARTESIAN_POINT('Origin',(0.,57.5,-45.));
#1283=CARTESIAN_POINT('',(0.,57.5,-45.));
#1284=CARTESIAN_POINT('Origin',(900.,80.,-45.));
#1285=CARTESIAN_POINT('Origin',(900.,-67.,0.));
#1286=CARTESIAN_POINT('',(1800.,-67.,16.));
#1287=CARTESIAN_POINT('',(0.,-67.,16.));
#1288=CARTESIAN_POINT('',(900.,-67.,16.));
#1289=CARTESIAN_POINT('',(1800.,-67.,20.));
#1290=CARTESIAN_POINT('',(1800.,-67.,-22.5));
#1291=CARTESIAN_POINT('',(0.,-67.,20.));
#1292=CARTESIAN_POINT('',(900.,-67.,20.));
#1293=CARTESIAN_POINT('',(0.,-67.,-22.5));
#1294=CARTESIAN_POINT('Origin',(900.,-90.,0.));
#1295=CARTESIAN_POINT('',(0.,-90.,16.));
#1296=CARTESIAN_POINT('',(1800.,-90.,16.));
#1297=CARTESIAN_POINT('',(900.,-90.,16.));
#1298=CARTESIAN_POINT('',(0.,-90.,20.));
#1299=CARTESIAN_POINT('',(0.,-90.,-22.5));
#1300=CARTESIAN_POINT('',(1800.,-90.,20.));
#1301=CARTESIAN_POINT('',(900.,-90.,20.));
#1302=CARTESIAN_POINT('',(1800.,-90.,-22.5));
#1303=CARTESIAN_POINT('Origin',(900.,-80.,16.));
#1304=CARTESIAN_POINT('',(1800.,-98.5,16.));
#1305=CARTESIAN_POINT('',(1800.,-91.25,16.));
#1306=CARTESIAN_POINT('',(0.,-98.5,16.));
#1307=CARTESIAN_POINT('',(-10.,-98.5,16.));
#1308=CARTESIAN_POINT('',(0.,-68.75,16.));
#1309=CARTESIAN_POINT('Origin',(900.,-80.,16.));
#1310=CARTESIAN_POINT('',(0.,-61.5,16.));
#1311=CARTESIAN_POINT('',(0.,-68.75,16.));
#1312=CARTESIAN_POINT('',(1800.,-61.5,16.));
#1313=CARTESIAN_POINT('',(1810.,-61.5,16.));
#1314=CARTESIAN_POINT('',(1800.,-91.25,16.));
#1315=CARTESIAN_POINT('Origin',(0.,-57.5,-45.));
#1316=CARTESIAN_POINT('',(0.,-57.5,20.));
#1317=CARTESIAN_POINT('',(0.,-57.5,20.));
#1318=CARTESIAN_POINT('',(0.,-57.5,-45.));
#1319=CARTESIAN_POINT('',(0.,-57.5,-45.));
#1320=CARTESIAN_POINT('',(0.,-102.5,-45.));
#1321=CARTESIAN_POINT('',(0.,-57.5,-45.));
#1322=CARTESIAN_POINT('',(0.,-102.5,20.));
#1323=CARTESIAN_POINT('',(0.,-102.5,-45.));
#1324=CARTESIAN_POINT('',(0.,-57.5,20.));
#1325=CARTESIAN_POINT('',(0.,-98.5,-41.));
#1326=CARTESIAN_POINT('',(0.,-98.5,-43.));
#1327=CARTESIAN_POINT('',(0.,-61.5,-41.));
#1328=CARTESIAN_POINT('',(0.,-68.75,-41.));
#1329=CARTESIAN_POINT('',(0.,-61.5,-43.));
#1330=CARTESIAN_POINT('Origin',(900.,-80.,20.));
#1331=CARTESIAN_POINT('',(1800.,-57.5,20.));
#1332=CARTESIAN_POINT('',(1800.,-102.5,20.));
#1333=CARTESIAN_POINT('',(1800.,-57.5,20.));
#1334=CARTESIAN_POINT('Origin',(900.,-80.,20.));
#1335=CARTESIAN_POINT('',(1800.,-102.5,20.));
#1336=CARTESIAN_POINT('',(0.,-102.5,20.));
#1337=CARTESIAN_POINT('',(1800.,-102.5,20.));
#1338=CARTESIAN_POINT('Origin',(1810.,-61.5,-41.));
#1339=CARTESIAN_POINT('',(1800.,-61.5,-41.));
#1340=CARTESIAN_POINT('',(1800.,-61.5,-43.));
#1341=CARTESIAN_POINT('',(1810.,-61.5,-41.));
#1342=CARTESIAN_POINT('Origin',(900.,-80.,-41.));
#1343=CARTESIAN_POINT('',(1800.,-98.5,-41.));
#1344=CARTESIAN_POINT('',(1800.,-91.25,-41.));
#1345=CARTESIAN_POINT('',(-10.,-98.5,-41.));
#1346=CARTESIAN_POINT('Origin',(-10.,-98.5,-41.));
#1347=CARTESIAN_POINT('',(1800.,-98.5,-43.));
#1348=CARTESIAN_POINT('Origin',(1800.,-57.5,-45.));
#1349=CARTESIAN_POINT('',(1800.,-57.5,-45.));
#1350=CARTESIAN_POINT('',(1800.,-57.5,-45.));
#1351=CARTESIAN_POINT('',(1800.,-57.5,-45.));
#1352=CARTESIAN_POINT('Origin',(1800.,-102.5,-45.));
#1353=CARTESIAN_POINT('',(1800.,-102.5,-45.));
#1354=CARTESIAN_POINT('',(1800.,-102.5,-45.));
#1355=CARTESIAN_POINT('',(1800.,-102.5,-45.));
#1356=CARTESIAN_POINT('Origin',(0.,-102.5,-45.));
#1357=CARTESIAN_POINT('',(0.,-102.5,-45.));
#1358=CARTESIAN_POINT('Origin',(900.,-80.,-45.));
#1359=CARTESIAN_POINT('Origin',(1800.,68.,15.));
#1360=CARTESIAN_POINT('',(1800.,68.,15.));
#1361=CARTESIAN_POINT('',(0.,68.,15.));
#1362=CARTESIAN_POINT('',(1800.,68.,15.));
#1363=CARTESIAN_POINT('',(0.,88.,15.));
#1364=CARTESIAN_POINT('',(0.,68.,15.));
#1365=CARTESIAN_POINT('',(1800.,88.,15.));
#1366=CARTESIAN_POINT('',(1800.,88.,15.));
#1367=CARTESIAN_POINT('',(1800.,68.,15.));
#1368=CARTESIAN_POINT('Origin',(1800.,68.,22.));
#1369=CARTESIAN_POINT('',(1800.,68.,22.));
#1370=CARTESIAN_POINT('',(1800.,68.,22.));
#1371=CARTESIAN_POINT('',(1800.,88.,22.));
#1372=CARTESIAN_POINT('',(1800.,88.,22.));
#1373=CARTESIAN_POINT('',(1800.,68.,22.));
#1374=CARTESIAN_POINT('Origin',(0.,68.,22.));
#1375=CARTESIAN_POINT('',(0.,68.,22.));
#1376=CARTESIAN_POINT('',(0.,68.,22.));
#1377=CARTESIAN_POINT('',(0.,88.,22.));
#1378=CARTESIAN_POINT('',(0.,88.,22.));
#1379=CARTESIAN_POINT('',(0.,68.,22.));
#1380=CARTESIAN_POINT('Origin',(0.,68.,15.));
#1381=CARTESIAN_POINT('',(0.,68.,15.));
#1382=CARTESIAN_POINT('',(0.,88.,15.));
#1383=CARTESIAN_POINT('Origin',(900.,88.,18.5));
#1384=CARTESIAN_POINT('Origin',(900.,68.,18.5));
#1385=CARTESIAN_POINT('Origin',(1800.,68.,-22.));
#1386=CARTESIAN_POINT('',(1800.,68.,-22.));
#1387=CARTESIAN_POINT('',(0.,68.,-22.));
#1388=CARTESIAN_POINT('',(1800.,68.,-22.));
#1389=CARTESIAN_POINT('',(0.,88.,-22.));
#1390=CARTESIAN_POINT('',(0.,68.,-22.));
#1391=CARTESIAN_POINT('',(1800.,88.,-22.));
#1392=CARTESIAN_POINT('',(1800.,88.,-22.));
#1393=CARTESIAN_POINT('',(1800.,68.,-22.));
#1394=CARTESIAN_POINT('Origin',(1800.,68.,-15.));
#1395=CARTESIAN_POINT('',(1800.,68.,-15.));
#1396=CARTESIAN_POINT('',(1800.,68.,-15.));
#1397=CARTESIAN_POINT('',(1800.,88.,-15.));
#1398=CARTESIAN_POINT('',(1800.,88.,-15.));
#1399=CARTESIAN_POINT('',(1800.,68.,-15.));
#1400=CARTESIAN_POINT('Origin',(0.,68.,-15.));
#1401=CARTESIAN_POINT('',(0.,68.,-15.));
#1402=CARTESIAN_POINT('',(0.,68.,-15.));
#1403=CARTESIAN_POINT('',(0.,88.,-15.));
#1404=CARTESIAN_POINT('',(0.,88.,-15.));
#1405=CARTESIAN_POINT('',(0.,68.,-15.));
#1406=CARTESIAN_POINT('Origin',(0.,68.,-22.));
#1407=CARTESIAN_POINT('',(0.,68.,-22.));
#1408=CARTESIAN_POINT('',(0.,88.,-22.));
#1409=CARTESIAN_POINT('Origin',(900.,88.,-18.5));
#1410=CARTESIAN_POINT('Origin',(900.,68.,-18.5));
#1411=CARTESIAN_POINT('Origin',(1800.,-68.,22.));
#1412=CARTESIAN_POINT('',(0.,-68.,22.));
#1413=CARTESIAN_POINT('',(1800.,-68.,22.));
#1414=CARTESIAN_POINT('',(0.,-68.,22.));
#1415=CARTESIAN_POINT('',(0.,-88.,22.));
#1416=CARTESIAN_POINT('',(0.,-68.,22.));
#1417=CARTESIAN_POINT('',(1800.,-88.,22.));
#1418=CARTESIAN_POINT('',(0.,-88.,22.));
#1419=CARTESIAN_POINT('',(1800.,-68.,22.));
#1420=CARTESIAN_POINT('Origin',(1800.,-68.,15.));
#1421=CARTESIAN_POINT('',(1800.,-68.,15.));
#1422=CARTESIAN_POINT('',(1800.,-68.,22.));
#1423=CARTESIAN_POINT('',(1800.,-88.,15.));
#1424=CARTESIAN_POINT('',(1800.,-88.,22.));
#1425=CARTESIAN_POINT('',(1800.,-68.,15.));
#1426=CARTESIAN_POINT('Origin',(0.,-68.,15.));
#1427=CARTESIAN_POINT('',(0.,-68.,15.));
#1428=CARTESIAN_POINT('',(1800.,-68.,15.));
#1429=CARTESIAN_POINT('',(0.,-88.,15.));
#1430=CARTESIAN_POINT('',(1800.,-88.,15.));
#1431=CARTESIAN_POINT('',(0.,-68.,15.));
#1432=CARTESIAN_POINT('Origin',(0.,-68.,22.));
#1433=CARTESIAN_POINT('',(0.,-68.,15.));
#1434=CARTESIAN_POINT('',(0.,-88.,15.));
#1435=CARTESIAN_POINT('Origin',(900.,-68.,18.5));
#1436=CARTESIAN_POINT('Origin',(900.,-88.,18.5));
#1437=CARTESIAN_POINT('Origin',(1800.,-68.,-15.));
#1438=CARTESIAN_POINT('',(0.,-68.,-15.));
#1439=CARTESIAN_POINT('',(1800.,-68.,-15.));
#1440=CARTESIAN_POINT('',(0.,-68.,-15.));
#1441=CARTESIAN_POINT('',(0.,-88.,-15.));
#1442=CARTESIAN_POINT('',(0.,-68.,-15.));
#1443=CARTESIAN_POINT('',(1800.,-88.,-15.));
#1444=CARTESIAN_POINT('',(0.,-88.,-15.));
#1445=CARTESIAN_POINT('',(1800.,-68.,-15.));
#1446=CARTESIAN_POINT('Origin',(1800.,-68.,-22.));
#1447=CARTESIAN_POINT('',(1800.,-68.,-22.));
#1448=CARTESIAN_POINT('',(1800.,-68.,-15.));
#1449=CARTESIAN_POINT('',(1800.,-88.,-22.));
#1450=CARTESIAN_POINT('',(1800.,-88.,-15.));
#1451=CARTESIAN_POINT('',(1800.,-68.,-22.));
#1452=CARTESIAN_POINT('Origin',(0.,-68.,-22.));
#1453=CARTESIAN_POINT('',(0.,-68.,-22.));
#1454=CARTESIAN_POINT('',(1800.,-68.,-22.));
#1455=CARTESIAN_POINT('',(0.,-88.,-22.));
#1456=CARTESIAN_POINT('',(1800.,-88.,-22.));
#1457=CARTESIAN_POINT('',(0.,-68.,-22.));
#1458=CARTESIAN_POINT('Origin',(0.,-68.,-15.));
#1459=CARTESIAN_POINT('',(0.,-68.,-22.));
#1460=CARTESIAN_POINT('',(0.,-88.,-22.));
#1461=CARTESIAN_POINT('Origin',(900.,-68.,-18.5));
#1462=CARTESIAN_POINT('Origin',(900.,-88.,-18.5));
#1463=UNCERTAINTY_MEASURE_WITH_UNIT(LENGTH_MEASURE(0.01),#1467,
'DISTANCE_ACCURACY_VALUE',
'Maximum model space distance between geometric entities at asserted c
onnectivities');
#1464=UNCERTAINTY_MEASURE_WITH_UNIT(LENGTH_MEASURE(0.01),#1467,
'DISTANCE_ACCURACY_VALUE',
'Maximum model space distance between geometric entities at asserted c
onnectivities');
#1465=(
GEOMETRIC_REPRESENTATION_CONTEXT(3)
GLOBAL_UNCERTAINTY_ASSIGNED_CONTEXT((#1463))
GLOBAL_UNIT_ASSIGNED_CONTEXT((#1467,#1469,#1470))
REPRESENTATION_CONTEXT('','3D')
);
#1466=(
GEOMETRIC_REPRESENTATION_CONTEXT(3)
GLOBAL_UNCERTAINTY_ASSIGNED_CONTEXT((#1464))
GLOBAL_UNIT_ASSIGNED_CONTEXT((#1467,#1469,#1470))
REPRESENTATION_CONTEXT('','3D')
);
#1467=(
LENGTH_UNIT()
NAMED_UNIT(*)
SI_UNIT(.MILLI.,.METRE.)
);
#1468=(
LENGTH_UNIT()
NAMED_UNIT(*)
SI_UNIT($,.METRE.)
);
#1469=(
NAMED_UNIT(*)
PLANE_ANGLE_UNIT()
SI_UNIT($,.RADIAN.)
);
#1470=(
NAMED_UNIT(*)
SI_UNIT($,.STERADIAN.)
SOLID_ANGLE_UNIT()
);
#1471=SHAPE_DEFINITION_REPRESENTATION(#1472,#1473);
#1472=PRODUCT_DEFINITION_SHAPE('',$,#1475);
#1473=SHAPE_REPRESENTATION('',(#931),#1465);
#1474=PRODUCT_DEFINITION_CONTEXT('part definition',#1479,'design');
#1475=PRODUCT_DEFINITION('EMOCD_Track','EMOCD_Track v1',#1476,#1474);
#1476=PRODUCT_DEFINITION_FORMATION('',$,#1481);
#1477=PRODUCT_RELATED_PRODUCT_CATEGORY('EMOCD_Track v1',
'EMOCD_Track v1',(#1481));
#1478=APPLICATION_PROTOCOL_DEFINITION('international standard',
'automotive_design',2009,#1479);
#1479=APPLICATION_CONTEXT(
'Core Data for Automotive Mechanical Design Process');
#1480=PRODUCT_CONTEXT('part definition',#1479,'mechanical');
#1481=PRODUCT('EMOCD_Track','EMOCD_Track v1',$,(#1480));
#1482=PRESENTATION_STYLE_ASSIGNMENT((#1485));
#1483=PRESENTATION_STYLE_ASSIGNMENT((#1486));
#1484=PRESENTATION_STYLE_ASSIGNMENT((#1487));
#1485=SURFACE_STYLE_USAGE(.BOTH.,#1488);
#1486=SURFACE_STYLE_USAGE(.BOTH.,#1489);
#1487=SURFACE_STYLE_USAGE(.BOTH.,#1490);
#1488=SURFACE_SIDE_STYLE('',(#1491));
#1489=SURFACE_SIDE_STYLE('',(#1492));
#1490=SURFACE_SIDE_STYLE('',(#1493));
#1491=SURFACE_STYLE_FILL_AREA(#1494);
#1492=SURFACE_STYLE_FILL_AREA(#1495);
#1493=SURFACE_STYLE_FILL_AREA(#1496);
#1494=FILL_AREA_STYLE('Steel - Satin',(#1497));
#1495=FILL_AREA_STYLE('Aluminum - Anodized Rough (Grey)',(#1498));
#1496=FILL_AREA_STYLE('Aluminum - Satin',(#1499));
#1497=FILL_AREA_STYLE_COLOUR('Steel - Satin',#1500);
#1498=FILL_AREA_STYLE_COLOUR('Aluminum - Anodized Rough (Grey)',#1501);
#1499=FILL_AREA_STYLE_COLOUR('Aluminum - Satin',#1502);
#1500=COLOUR_RGB('Steel - Satin',0.627450980392157,0.627450980392157,0.627450980392157);
#1501=COLOUR_RGB('Aluminum - Anodized Rough (Grey)',0.537254901960784,0.537254901960784,
0.537254901960784);
#1502=COLOUR_RGB('Aluminum - Satin',0.96078431372549,0.96078431372549,0.964705882352941);
ENDSEC;
END-ISO-10303-21;
