ISO-10303-21;
HEADER;
/* Generated by software containing ST-Developer
 * from STEP Tools, Inc. (www.steptools.com) 
 */

FILE_DESCRIPTION(
/* description */ (''),
/* implementation_level */ '2;1');

FILE_NAME(
/* name */ 'EMOCD_Brake.step',
/* time_stamp */ '2026-07-23T17:22:53+05:30',
/* author */ (''),
/* organization */ (''),
/* preprocessor_version */ 'ST-DEVELOPER v20.1',
/* originating_system */ 'Autodesk Translation Framework v15.8.0.0',
/* authorisation */ '');

FILE_SCHEMA (('AUTOMOTIVE_DESIGN { 1 0 10303 214 3 1 1 }'));
ENDSEC;

DATA;
#10=MECHANICAL_DESIGN_GEOMETRIC_PRESENTATION_REPRESENTATION('',(#13,#14,
#15),#551);
#11=SHAPE_REPRESENTATION_RELATIONSHIP('SRR','None',#558,#12);
#12=ADVANCED_BREP_SHAPE_REPRESENTATION('',(#16,#17,#18),#550);
#13=STYLED_ITEM('',(#568),#16);
#14=STYLED_ITEM('',(#567),#17);
#15=STYLED_ITEM('',(#567),#18);
#16=MANIFOLD_SOLID_BREP('ring_spring_stop',#337);
#17=MANIFOLD_SOLID_BREP('brake_pole_upper',#338);
#18=MANIFOLD_SOLID_BREP('brake_pole_lower',#339);
#19=FACE_OUTER_BOUND('',#39,.T.);
#20=FACE_OUTER_BOUND('',#40,.T.);
#21=FACE_OUTER_BOUND('',#41,.T.);
#22=FACE_OUTER_BOUND('',#42,.T.);
#23=FACE_OUTER_BOUND('',#43,.T.);
#24=FACE_OUTER_BOUND('',#44,.T.);
#25=FACE_OUTER_BOUND('',#45,.T.);
#26=FACE_OUTER_BOUND('',#46,.T.);
#27=FACE_OUTER_BOUND('',#47,.T.);
#28=FACE_OUTER_BOUND('',#48,.T.);
#29=FACE_OUTER_BOUND('',#49,.T.);
#30=FACE_OUTER_BOUND('',#50,.T.);
#31=FACE_OUTER_BOUND('',#51,.T.);
#32=FACE_OUTER_BOUND('',#52,.T.);
#33=FACE_OUTER_BOUND('',#53,.T.);
#34=FACE_OUTER_BOUND('',#54,.T.);
#35=FACE_OUTER_BOUND('',#55,.T.);
#36=FACE_OUTER_BOUND('',#56,.T.);
#37=FACE_OUTER_BOUND('',#57,.T.);
#38=FACE_OUTER_BOUND('',#58,.T.);
#39=EDGE_LOOP('',(#213,#214,#215,#216));
#40=EDGE_LOOP('',(#217,#218,#219,#220));
#41=EDGE_LOOP('',(#221,#222,#223,#224));
#42=EDGE_LOOP('',(#225,#226,#227,#228));
#43=EDGE_LOOP('',(#229,#230,#231,#232));
#44=EDGE_LOOP('',(#233,#234,#235,#236));
#45=EDGE_LOOP('',(#237,#238,#239,#240));
#46=EDGE_LOOP('',(#241,#242,#243,#244));
#47=EDGE_LOOP('',(#245,#246,#247,#248));
#48=EDGE_LOOP('',(#249,#250,#251,#252));
#49=EDGE_LOOP('',(#253,#254,#255,#256));
#50=EDGE_LOOP('',(#257,#258,#259,#260,#261));
#51=EDGE_LOOP('',(#262,#263,#264,#265,#266));
#52=EDGE_LOOP('',(#267,#268,#269,#270));
#53=EDGE_LOOP('',(#271,#272,#273,#274));
#54=EDGE_LOOP('',(#275,#276,#277,#278));
#55=EDGE_LOOP('',(#279,#280,#281,#282));
#56=EDGE_LOOP('',(#283,#284,#285,#286));
#57=EDGE_LOOP('',(#287,#288,#289,#290,#291));
#58=EDGE_LOOP('',(#292,#293,#294,#295,#296));
#59=LINE('',#461,#101);
#60=LINE('',#463,#102);
#61=LINE('',#465,#103);
#62=LINE('',#466,#104);
#63=LINE('',#469,#105);
#64=LINE('',#471,#106);
#65=LINE('',#472,#107);
#66=LINE('',#475,#108);
#67=LINE('',#477,#109);
#68=LINE('',#478,#110);
#69=LINE('',#480,#111);
#70=LINE('',#481,#112);
#71=LINE('',#487,#113);
#72=LINE('',#489,#114);
#73=LINE('',#491,#115);
#74=LINE('',#492,#116);
#75=LINE('',#495,#117);
#76=LINE('',#497,#118);
#77=LINE('',#498,#119);
#78=LINE('',#501,#120);
#79=LINE('',#503,#121);
#80=LINE('',#504,#122);
#81=LINE('',#507,#123);
#82=LINE('',#509,#124);
#83=LINE('',#510,#125);
#84=LINE('',#512,#126);
#85=LINE('',#513,#127);
#86=LINE('',#519,#128);
#87=LINE('',#521,#129);
#88=LINE('',#523,#130);
#89=LINE('',#524,#131);
#90=LINE('',#527,#132);
#91=LINE('',#529,#133);
#92=LINE('',#530,#134);
#93=LINE('',#533,#135);
#94=LINE('',#535,#136);
#95=LINE('',#536,#137);
#96=LINE('',#539,#138);
#97=LINE('',#541,#139);
#98=LINE('',#542,#140);
#99=LINE('',#544,#141);
#100=LINE('',#545,#142);
#101=VECTOR('',#377,10.);
#102=VECTOR('',#378,10.);
#103=VECTOR('',#379,10.);
#104=VECTOR('',#380,10.);
#105=VECTOR('',#383,10.);
#106=VECTOR('',#384,10.);
#107=VECTOR('',#385,10.);
#108=VECTOR('',#388,10.);
#109=VECTOR('',#389,10.);
#110=VECTOR('',#390,10.);
#111=VECTOR('',#393,10.);
#112=VECTOR('',#394,10.);
#113=VECTOR('',#401,10.);
#114=VECTOR('',#402,10.);
#115=VECTOR('',#403,10.);
#116=VECTOR('',#404,10.);
#117=VECTOR('',#407,10.);
#118=VECTOR('',#408,10.);
#119=VECTOR('',#409,10.);
#120=VECTOR('',#412,10.);
#121=VECTOR('',#413,10.);
#122=VECTOR('',#414,10.);
#123=VECTOR('',#417,10.);
#124=VECTOR('',#418,10.);
#125=VECTOR('',#419,10.);
#126=VECTOR('',#422,10.);
#127=VECTOR('',#423,10.);
#128=VECTOR('',#430,10.);
#129=VECTOR('',#431,10.);
#130=VECTOR('',#432,10.);
#131=VECTOR('',#433,10.);
#132=VECTOR('',#436,10.);
#133=VECTOR('',#437,10.);
#134=VECTOR('',#438,10.);
#135=VECTOR('',#441,10.);
#136=VECTOR('',#442,10.);
#137=VECTOR('',#443,10.);
#138=VECTOR('',#446,10.);
#139=VECTOR('',#447,10.);
#140=VECTOR('',#448,10.);
#141=VECTOR('',#451,10.);
#142=VECTOR('',#452,10.);
#143=VERTEX_POINT('',#459);
#144=VERTEX_POINT('',#460);
#145=VERTEX_POINT('',#462);
#146=VERTEX_POINT('',#464);
#147=VERTEX_POINT('',#468);
#148=VERTEX_POINT('',#470);
#149=VERTEX_POINT('',#474);
#150=VERTEX_POINT('',#476);
#151=VERTEX_POINT('',#485);
#152=VERTEX_POINT('',#486);
#153=VERTEX_POINT('',#488);
#154=VERTEX_POINT('',#490);
#155=VERTEX_POINT('',#494);
#156=VERTEX_POINT('',#496);
#157=VERTEX_POINT('',#500);
#158=VERTEX_POINT('',#502);
#159=VERTEX_POINT('',#506);
#160=VERTEX_POINT('',#508);
#161=VERTEX_POINT('',#517);
#162=VERTEX_POINT('',#518);
#163=VERTEX_POINT('',#520);
#164=VERTEX_POINT('',#522);
#165=VERTEX_POINT('',#526);
#166=VERTEX_POINT('',#528);
#167=VERTEX_POINT('',#532);
#168=VERTEX_POINT('',#534);
#169=VERTEX_POINT('',#538);
#170=VERTEX_POINT('',#540);
#171=EDGE_CURVE('',#143,#144,#59,.T.);
#172=EDGE_CURVE('',#144,#145,#60,.T.);
#173=EDGE_CURVE('',#146,#145,#61,.T.);
#174=EDGE_CURVE('',#143,#146,#62,.T.);
#175=EDGE_CURVE('',#147,#143,#63,.T.);
#176=EDGE_CURVE('',#148,#146,#64,.T.);
#177=EDGE_CURVE('',#147,#148,#65,.T.);
#178=EDGE_CURVE('',#149,#147,#66,.T.);
#179=EDGE_CURVE('',#150,#148,#67,.T.);
#180=EDGE_CURVE('',#149,#150,#68,.T.);
#181=EDGE_CURVE('',#144,#149,#69,.T.);
#182=EDGE_CURVE('',#145,#150,#70,.T.);
#183=EDGE_CURVE('',#151,#152,#71,.T.);
#184=EDGE_CURVE('',#151,#153,#72,.T.);
#185=EDGE_CURVE('',#154,#153,#73,.T.);
#186=EDGE_CURVE('',#152,#154,#74,.T.);
#187=EDGE_CURVE('',#152,#155,#75,.T.);
#188=EDGE_CURVE('',#156,#154,#76,.T.);
#189=EDGE_CURVE('',#155,#156,#77,.T.);
#190=EDGE_CURVE('',#155,#157,#78,.T.);
#191=EDGE_CURVE('',#158,#156,#79,.T.);
#192=EDGE_CURVE('',#157,#158,#80,.T.);
#193=EDGE_CURVE('',#157,#159,#81,.T.);
#194=EDGE_CURVE('',#160,#158,#82,.T.);
#195=EDGE_CURVE('',#159,#160,#83,.T.);
#196=EDGE_CURVE('',#159,#151,#84,.T.);
#197=EDGE_CURVE('',#153,#160,#85,.T.);
#198=EDGE_CURVE('',#161,#162,#86,.T.);
#199=EDGE_CURVE('',#162,#163,#87,.T.);
#200=EDGE_CURVE('',#164,#163,#88,.T.);
#201=EDGE_CURVE('',#161,#164,#89,.T.);
#202=EDGE_CURVE('',#165,#161,#90,.T.);
#203=EDGE_CURVE('',#166,#164,#91,.T.);
#204=EDGE_CURVE('',#165,#166,#92,.T.);
#205=EDGE_CURVE('',#167,#165,#93,.T.);
#206=EDGE_CURVE('',#168,#166,#94,.T.);
#207=EDGE_CURVE('',#167,#168,#95,.T.);
#208=EDGE_CURVE('',#169,#167,#96,.T.);
#209=EDGE_CURVE('',#170,#168,#97,.T.);
#210=EDGE_CURVE('',#169,#170,#98,.T.);
#211=EDGE_CURVE('',#162,#169,#99,.T.);
#212=EDGE_CURVE('',#163,#170,#100,.T.);
#213=ORIENTED_EDGE('',*,*,#171,.T.);
#214=ORIENTED_EDGE('',*,*,#172,.T.);
#215=ORIENTED_EDGE('',*,*,#173,.F.);
#216=ORIENTED_EDGE('',*,*,#174,.F.);
#217=ORIENTED_EDGE('',*,*,#175,.T.);
#218=ORIENTED_EDGE('',*,*,#174,.T.);
#219=ORIENTED_EDGE('',*,*,#176,.F.);
#220=ORIENTED_EDGE('',*,*,#177,.F.);
#221=ORIENTED_EDGE('',*,*,#178,.T.);
#222=ORIENTED_EDGE('',*,*,#177,.T.);
#223=ORIENTED_EDGE('',*,*,#179,.F.);
#224=ORIENTED_EDGE('',*,*,#180,.F.);
#225=ORIENTED_EDGE('',*,*,#181,.T.);
#226=ORIENTED_EDGE('',*,*,#180,.T.);
#227=ORIENTED_EDGE('',*,*,#182,.F.);
#228=ORIENTED_EDGE('',*,*,#172,.F.);
#229=ORIENTED_EDGE('',*,*,#182,.T.);
#230=ORIENTED_EDGE('',*,*,#179,.T.);
#231=ORIENTED_EDGE('',*,*,#176,.T.);
#232=ORIENTED_EDGE('',*,*,#173,.T.);
#233=ORIENTED_EDGE('',*,*,#181,.F.);
#234=ORIENTED_EDGE('',*,*,#171,.F.);
#235=ORIENTED_EDGE('',*,*,#175,.F.);
#236=ORIENTED_EDGE('',*,*,#178,.F.);
#237=ORIENTED_EDGE('',*,*,#183,.F.);
#238=ORIENTED_EDGE('',*,*,#184,.T.);
#239=ORIENTED_EDGE('',*,*,#185,.F.);
#240=ORIENTED_EDGE('',*,*,#186,.F.);
#241=ORIENTED_EDGE('',*,*,#187,.F.);
#242=ORIENTED_EDGE('',*,*,#186,.T.);
#243=ORIENTED_EDGE('',*,*,#188,.F.);
#244=ORIENTED_EDGE('',*,*,#189,.F.);
#245=ORIENTED_EDGE('',*,*,#190,.F.);
#246=ORIENTED_EDGE('',*,*,#189,.T.);
#247=ORIENTED_EDGE('',*,*,#191,.F.);
#248=ORIENTED_EDGE('',*,*,#192,.F.);
#249=ORIENTED_EDGE('',*,*,#193,.F.);
#250=ORIENTED_EDGE('',*,*,#192,.T.);
#251=ORIENTED_EDGE('',*,*,#194,.F.);
#252=ORIENTED_EDGE('',*,*,#195,.F.);
#253=ORIENTED_EDGE('',*,*,#196,.F.);
#254=ORIENTED_EDGE('',*,*,#195,.T.);
#255=ORIENTED_EDGE('',*,*,#197,.F.);
#256=ORIENTED_EDGE('',*,*,#184,.F.);
#257=ORIENTED_EDGE('',*,*,#197,.T.);
#258=ORIENTED_EDGE('',*,*,#194,.T.);
#259=ORIENTED_EDGE('',*,*,#191,.T.);
#260=ORIENTED_EDGE('',*,*,#188,.T.);
#261=ORIENTED_EDGE('',*,*,#185,.T.);
#262=ORIENTED_EDGE('',*,*,#196,.T.);
#263=ORIENTED_EDGE('',*,*,#183,.T.);
#264=ORIENTED_EDGE('',*,*,#187,.T.);
#265=ORIENTED_EDGE('',*,*,#190,.T.);
#266=ORIENTED_EDGE('',*,*,#193,.T.);
#267=ORIENTED_EDGE('',*,*,#198,.T.);
#268=ORIENTED_EDGE('',*,*,#199,.T.);
#269=ORIENTED_EDGE('',*,*,#200,.F.);
#270=ORIENTED_EDGE('',*,*,#201,.F.);
#271=ORIENTED_EDGE('',*,*,#202,.T.);
#272=ORIENTED_EDGE('',*,*,#201,.T.);
#273=ORIENTED_EDGE('',*,*,#203,.F.);
#274=ORIENTED_EDGE('',*,*,#204,.F.);
#275=ORIENTED_EDGE('',*,*,#205,.T.);
#276=ORIENTED_EDGE('',*,*,#204,.T.);
#277=ORIENTED_EDGE('',*,*,#206,.F.);
#278=ORIENTED_EDGE('',*,*,#207,.F.);
#279=ORIENTED_EDGE('',*,*,#208,.T.);
#280=ORIENTED_EDGE('',*,*,#207,.T.);
#281=ORIENTED_EDGE('',*,*,#209,.F.);
#282=ORIENTED_EDGE('',*,*,#210,.F.);
#283=ORIENTED_EDGE('',*,*,#211,.T.);
#284=ORIENTED_EDGE('',*,*,#210,.T.);
#285=ORIENTED_EDGE('',*,*,#212,.F.);
#286=ORIENTED_EDGE('',*,*,#199,.F.);
#287=ORIENTED_EDGE('',*,*,#212,.T.);
#288=ORIENTED_EDGE('',*,*,#209,.T.);
#289=ORIENTED_EDGE('',*,*,#206,.T.);
#290=ORIENTED_EDGE('',*,*,#203,.T.);
#291=ORIENTED_EDGE('',*,*,#200,.T.);
#292=ORIENTED_EDGE('',*,*,#211,.F.);
#293=ORIENTED_EDGE('',*,*,#198,.F.);
#294=ORIENTED_EDGE('',*,*,#202,.F.);
#295=ORIENTED_EDGE('',*,*,#205,.F.);
#296=ORIENTED_EDGE('',*,*,#208,.F.);
#297=PLANE('',#353);
#298=PLANE('',#354);
#299=PLANE('',#355);
#300=PLANE('',#356);
#301=PLANE('',#357);
#302=PLANE('',#358);
#303=PLANE('',#359);
#304=PLANE('',#360);
#305=PLANE('',#361);
#306=PLANE('',#362);
#307=PLANE('',#363);
#308=PLANE('',#364);
#309=PLANE('',#365);
#310=PLANE('',#366);
#311=PLANE('',#367);
#312=PLANE('',#368);
#313=PLANE('',#369);
#314=PLANE('',#370);
#315=PLANE('',#371);
#316=PLANE('',#372);
#317=ADVANCED_FACE('',(#19),#297,.T.);
#318=ADVANCED_FACE('',(#20),#298,.T.);
#319=ADVANCED_FACE('',(#21),#299,.T.);
#320=ADVANCED_FACE('',(#22),#300,.T.);
#321=ADVANCED_FACE('',(#23),#301,.T.);
#322=ADVANCED_FACE('',(#24),#302,.F.);
#323=ADVANCED_FACE('',(#25),#303,.T.);
#324=ADVANCED_FACE('',(#26),#304,.T.);
#325=ADVANCED_FACE('',(#27),#305,.T.);
#326=ADVANCED_FACE('',(#28),#306,.T.);
#327=ADVANCED_FACE('',(#29),#307,.T.);
#328=ADVANCED_FACE('',(#30),#308,.T.);
#329=ADVANCED_FACE('',(#31),#309,.F.);
#330=ADVANCED_FACE('',(#32),#310,.T.);
#331=ADVANCED_FACE('',(#33),#311,.T.);
#332=ADVANCED_FACE('',(#34),#312,.T.);
#333=ADVANCED_FACE('',(#35),#313,.T.);
#334=ADVANCED_FACE('',(#36),#314,.T.);
#335=ADVANCED_FACE('',(#37),#315,.T.);
#336=ADVANCED_FACE('',(#38),#316,.F.);
#337=CLOSED_SHELL('',(#317,#318,#319,#320,#321,#322));
#338=CLOSED_SHELL('',(#323,#324,#325,#326,#327,#328,#329));
#339=CLOSED_SHELL('',(#330,#331,#332,#333,#334,#335,#336));
#340=DERIVED_UNIT_ELEMENT(#342,1.);
#341=DERIVED_UNIT_ELEMENT(#553,-3.);
#342=(
MASS_UNIT()
NAMED_UNIT(*)
SI_UNIT(.KILO.,.GRAM.)
);
#343=DERIVED_UNIT((#340,#341));
#344=MEASURE_REPRESENTATION_ITEM('density measure',
POSITIVE_RATIO_MEASURE(7850.),#343);
#345=PROPERTY_DEFINITION_REPRESENTATION(#350,#347);
#346=PROPERTY_DEFINITION_REPRESENTATION(#351,#348);
#347=REPRESENTATION('material name',(#349),#550);
#348=REPRESENTATION('density',(#344),#550);
#349=DESCRIPTIVE_REPRESENTATION_ITEM('Steel','Steel');
#350=PROPERTY_DEFINITION('material property','material name',#560);
#351=PROPERTY_DEFINITION('material property','density of part',#560);
#352=AXIS2_PLACEMENT_3D('',#457,#373,#374);
#353=AXIS2_PLACEMENT_3D('',#458,#375,#376);
#354=AXIS2_PLACEMENT_3D('',#467,#381,#382);
#355=AXIS2_PLACEMENT_3D('',#473,#386,#387);
#356=AXIS2_PLACEMENT_3D('',#479,#391,#392);
#357=AXIS2_PLACEMENT_3D('',#482,#395,#396);
#358=AXIS2_PLACEMENT_3D('',#483,#397,#398);
#359=AXIS2_PLACEMENT_3D('',#484,#399,#400);
#360=AXIS2_PLACEMENT_3D('',#493,#405,#406);
#361=AXIS2_PLACEMENT_3D('',#499,#410,#411);
#362=AXIS2_PLACEMENT_3D('',#505,#415,#416);
#363=AXIS2_PLACEMENT_3D('',#511,#420,#421);
#364=AXIS2_PLACEMENT_3D('',#514,#424,#425);
#365=AXIS2_PLACEMENT_3D('',#515,#426,#427);
#366=AXIS2_PLACEMENT_3D('',#516,#428,#429);
#367=AXIS2_PLACEMENT_3D('',#525,#434,#435);
#368=AXIS2_PLACEMENT_3D('',#531,#439,#440);
#369=AXIS2_PLACEMENT_3D('',#537,#444,#445);
#370=AXIS2_PLACEMENT_3D('',#543,#449,#450);
#371=AXIS2_PLACEMENT_3D('',#546,#453,#454);
#372=AXIS2_PLACEMENT_3D('',#547,#455,#456);
#373=DIRECTION('axis',(0.,0.,1.));
#374=DIRECTION('refdir',(1.,0.,0.));
#375=DIRECTION('center_axis',(0.,1.,0.));
#376=DIRECTION('ref_axis',(-1.,0.,0.));
#377=DIRECTION('',(-1.,0.,0.));
#378=DIRECTION('',(0.,0.,1.));
#379=DIRECTION('',(-1.,0.,0.));
#380=DIRECTION('',(0.,0.,1.));
#381=DIRECTION('center_axis',(1.,0.,0.));
#382=DIRECTION('ref_axis',(0.,1.,0.));
#383=DIRECTION('',(0.,1.,0.));
#384=DIRECTION('',(0.,1.,0.));
#385=DIRECTION('',(0.,0.,1.));
#386=DIRECTION('center_axis',(0.,-1.,0.));
#387=DIRECTION('ref_axis',(1.,0.,0.));
#388=DIRECTION('',(1.,0.,0.));
#389=DIRECTION('',(1.,0.,0.));
#390=DIRECTION('',(0.,0.,1.));
#391=DIRECTION('center_axis',(-1.,0.,0.));
#392=DIRECTION('ref_axis',(0.,-1.,0.));
#393=DIRECTION('',(0.,-1.,0.));
#394=DIRECTION('',(0.,-1.,0.));
#395=DIRECTION('center_axis',(0.,0.,1.));
#396=DIRECTION('ref_axis',(1.,0.,0.));
#397=DIRECTION('center_axis',(0.,0.,1.));
#398=DIRECTION('ref_axis',(1.,0.,0.));
#399=DIRECTION('center_axis',(-1.,0.,0.));
#400=DIRECTION('ref_axis',(0.,0.,1.));
#401=DIRECTION('',(0.,0.,-1.));
#402=DIRECTION('',(0.,1.,0.));
#403=DIRECTION('',(0.,0.,1.));
#404=DIRECTION('',(0.,1.,0.));
#405=DIRECTION('center_axis',(-0.257662650560332,0.,-0.966234939601246));
#406=DIRECTION('ref_axis',(-0.966234939601246,0.,0.257662650560332));
#407=DIRECTION('',(0.966234939601246,0.,-0.257662650560332));
#408=DIRECTION('',(-0.966234939601246,0.,0.257662650560332));
#409=DIRECTION('',(0.,1.,0.));
#410=DIRECTION('center_axis',(0.,0.,-1.));
#411=DIRECTION('ref_axis',(-1.,0.,0.));
#412=DIRECTION('',(1.,0.,0.));
#413=DIRECTION('',(-1.,0.,0.));
#414=DIRECTION('',(0.,1.,0.));
#415=DIRECTION('center_axis',(1.,0.,0.));
#416=DIRECTION('ref_axis',(0.,0.,-1.));
#417=DIRECTION('',(0.,0.,1.));
#418=DIRECTION('',(0.,0.,-1.));
#419=DIRECTION('',(0.,1.,0.));
#420=DIRECTION('center_axis',(0.,0.,1.));
#421=DIRECTION('ref_axis',(1.,0.,0.));
#422=DIRECTION('',(-1.,0.,0.));
#423=DIRECTION('',(1.,0.,0.));
#424=DIRECTION('center_axis',(0.,1.,0.));
#425=DIRECTION('ref_axis',(0.,0.,1.));
#426=DIRECTION('center_axis',(0.,1.,0.));
#427=DIRECTION('ref_axis',(1.,0.,0.));
#428=DIRECTION('center_axis',(0.,0.,-1.));
#429=DIRECTION('ref_axis',(-1.,0.,0.));
#430=DIRECTION('',(-1.,0.,0.));
#431=DIRECTION('',(0.,1.,0.));
#432=DIRECTION('',(-1.,0.,0.));
#433=DIRECTION('',(0.,1.,0.));
#434=DIRECTION('center_axis',(1.,0.,0.));
#435=DIRECTION('ref_axis',(0.,0.,-1.));
#436=DIRECTION('',(0.,0.,-1.));
#437=DIRECTION('',(0.,0.,-1.));
#438=DIRECTION('',(0.,1.,0.));
#439=DIRECTION('center_axis',(0.,0.,1.));
#440=DIRECTION('ref_axis',(1.,0.,0.));
#441=DIRECTION('',(1.,0.,0.));
#442=DIRECTION('',(1.,0.,0.));
#443=DIRECTION('',(0.,1.,0.));
#444=DIRECTION('center_axis',(-0.257662650560332,0.,0.966234939601246));
#445=DIRECTION('ref_axis',(0.966234939601246,0.,0.257662650560332));
#446=DIRECTION('',(0.966234939601246,0.,0.257662650560332));
#447=DIRECTION('',(0.966234939601246,0.,0.257662650560332));
#448=DIRECTION('',(0.,1.,0.));
#449=DIRECTION('center_axis',(-1.,0.,0.));
#450=DIRECTION('ref_axis',(0.,0.,1.));
#451=DIRECTION('',(0.,0.,1.));
#452=DIRECTION('',(0.,0.,1.));
#453=DIRECTION('center_axis',(0.,1.,0.));
#454=DIRECTION('ref_axis',(0.,0.,1.));
#455=DIRECTION('center_axis',(0.,1.,0.));
#456=DIRECTION('ref_axis',(1.,0.,0.));
#457=CARTESIAN_POINT('',(0.,0.,0.));
#458=CARTESIAN_POINT('Origin',(1740.,45.,-46.));
#459=CARTESIAN_POINT('',(1740.,45.,-46.));
#460=CARTESIAN_POINT('',(1710.,45.,-46.));
#461=CARTESIAN_POINT('',(1740.,45.,-46.));
#462=CARTESIAN_POINT('',(1710.,45.,46.));
#463=CARTESIAN_POINT('',(1710.,45.,-46.));
#464=CARTESIAN_POINT('',(1740.,45.,46.));
#465=CARTESIAN_POINT('',(1740.,45.,46.));
#466=CARTESIAN_POINT('',(1740.,45.,-46.));
#467=CARTESIAN_POINT('Origin',(1740.,-45.,-46.));
#468=CARTESIAN_POINT('',(1740.,-45.,-46.));
#469=CARTESIAN_POINT('',(1740.,-45.,-46.));
#470=CARTESIAN_POINT('',(1740.,-45.,46.));
#471=CARTESIAN_POINT('',(1740.,-45.,46.));
#472=CARTESIAN_POINT('',(1740.,-45.,-46.));
#473=CARTESIAN_POINT('Origin',(1710.,-45.,-46.));
#474=CARTESIAN_POINT('',(1710.,-45.,-46.));
#475=CARTESIAN_POINT('',(1710.,-45.,-46.));
#476=CARTESIAN_POINT('',(1710.,-45.,46.));
#477=CARTESIAN_POINT('',(1710.,-45.,46.));
#478=CARTESIAN_POINT('',(1710.,-45.,-46.));
#479=CARTESIAN_POINT('Origin',(1710.,45.,-46.));
#480=CARTESIAN_POINT('',(1710.,45.,-46.));
#481=CARTESIAN_POINT('',(1710.,45.,46.));
#482=CARTESIAN_POINT('Origin',(1725.,0.,46.));
#483=CARTESIAN_POINT('Origin',(1725.,0.,-46.));
#484=CARTESIAN_POINT('Origin',(1530.,-45.,24.));
#485=CARTESIAN_POINT('',(1530.,-45.,31.));
#486=CARTESIAN_POINT('',(1530.,-45.,24.));
#487=CARTESIAN_POINT('',(1530.,-45.,31.));
#488=CARTESIAN_POINT('',(1530.,45.,31.));
#489=CARTESIAN_POINT('',(1530.,-45.,31.));
#490=CARTESIAN_POINT('',(1530.,45.,24.));
#491=CARTESIAN_POINT('',(1530.,45.,31.));
#492=CARTESIAN_POINT('',(1530.,-45.,24.));
#493=CARTESIAN_POINT('Origin',(1560.,-45.,16.));
#494=CARTESIAN_POINT('',(1560.,-45.,16.));
#495=CARTESIAN_POINT('',(1530.,-45.,24.));
#496=CARTESIAN_POINT('',(1560.,45.,16.));
#497=CARTESIAN_POINT('',(1530.,45.,24.));
#498=CARTESIAN_POINT('',(1560.,-45.,16.));
#499=CARTESIAN_POINT('Origin',(1700.,-45.,16.));
#500=CARTESIAN_POINT('',(1700.,-45.,16.));
#501=CARTESIAN_POINT('',(1560.,-45.,16.));
#502=CARTESIAN_POINT('',(1700.,45.,16.));
#503=CARTESIAN_POINT('',(1560.,45.,16.));
#504=CARTESIAN_POINT('',(1700.,-45.,16.));
#505=CARTESIAN_POINT('Origin',(1700.,-45.,31.));
#506=CARTESIAN_POINT('',(1700.,-45.,31.));
#507=CARTESIAN_POINT('',(1700.,-45.,16.));
#508=CARTESIAN_POINT('',(1700.,45.,31.));
#509=CARTESIAN_POINT('',(1700.,45.,16.));
#510=CARTESIAN_POINT('',(1700.,-45.,31.));
#511=CARTESIAN_POINT('Origin',(1530.,-45.,31.));
#512=CARTESIAN_POINT('',(1700.,-45.,31.));
#513=CARTESIAN_POINT('',(1700.,45.,31.));
#514=CARTESIAN_POINT('Origin',(1615.,45.,23.5));
#515=CARTESIAN_POINT('Origin',(1615.,-45.,23.5));
#516=CARTESIAN_POINT('Origin',(1700.,-45.,-31.));
#517=CARTESIAN_POINT('',(1700.,-45.,-31.));
#518=CARTESIAN_POINT('',(1530.,-45.,-31.));
#519=CARTESIAN_POINT('',(1700.,-45.,-31.));
#520=CARTESIAN_POINT('',(1530.,45.,-31.));
#521=CARTESIAN_POINT('',(1530.,-45.,-31.));
#522=CARTESIAN_POINT('',(1700.,45.,-31.));
#523=CARTESIAN_POINT('',(1700.,45.,-31.));
#524=CARTESIAN_POINT('',(1700.,-45.,-31.));
#525=CARTESIAN_POINT('Origin',(1700.,-45.,-16.));
#526=CARTESIAN_POINT('',(1700.,-45.,-16.));
#527=CARTESIAN_POINT('',(1700.,-45.,-16.));
#528=CARTESIAN_POINT('',(1700.,45.,-16.));
#529=CARTESIAN_POINT('',(1700.,45.,-16.));
#530=CARTESIAN_POINT('',(1700.,-45.,-16.));
#531=CARTESIAN_POINT('Origin',(1560.,-45.,-16.));
#532=CARTESIAN_POINT('',(1560.,-45.,-16.));
#533=CARTESIAN_POINT('',(1560.,-45.,-16.));
#534=CARTESIAN_POINT('',(1560.,45.,-16.));
#535=CARTESIAN_POINT('',(1560.,45.,-16.));
#536=CARTESIAN_POINT('',(1560.,-45.,-16.));
#537=CARTESIAN_POINT('Origin',(1530.,-45.,-24.));
#538=CARTESIAN_POINT('',(1530.,-45.,-24.));
#539=CARTESIAN_POINT('',(1530.,-45.,-24.));
#540=CARTESIAN_POINT('',(1530.,45.,-24.));
#541=CARTESIAN_POINT('',(1530.,45.,-24.));
#542=CARTESIAN_POINT('',(1530.,-45.,-24.));
#543=CARTESIAN_POINT('Origin',(1530.,-45.,-31.));
#544=CARTESIAN_POINT('',(1530.,-45.,-31.));
#545=CARTESIAN_POINT('',(1530.,45.,-31.));
#546=CARTESIAN_POINT('Origin',(1615.,45.,-23.5));
#547=CARTESIAN_POINT('Origin',(1615.,-45.,-23.5));
#548=UNCERTAINTY_MEASURE_WITH_UNIT(LENGTH_MEASURE(0.01),#552,
'DISTANCE_ACCURACY_VALUE',
'Maximum model space distance between geometric entities at asserted c
onnectivities');
#549=UNCERTAINTY_MEASURE_WITH_UNIT(LENGTH_MEASURE(0.01),#552,
'DISTANCE_ACCURACY_VALUE',
'Maximum model space distance between geometric entities at asserted c
onnectivities');
#550=(
GEOMETRIC_REPRESENTATION_CONTEXT(3)
GLOBAL_UNCERTAINTY_ASSIGNED_CONTEXT((#548))
GLOBAL_UNIT_ASSIGNED_CONTEXT((#552,#554,#555))
REPRESENTATION_CONTEXT('','3D')
);
#551=(
GEOMETRIC_REPRESENTATION_CONTEXT(3)
GLOBAL_UNCERTAINTY_ASSIGNED_CONTEXT((#549))
GLOBAL_UNIT_ASSIGNED_CONTEXT((#552,#554,#555))
REPRESENTATION_CONTEXT('','3D')
);
#552=(
LENGTH_UNIT()
NAMED_UNIT(*)
SI_UNIT(.MILLI.,.METRE.)
);
#553=(
LENGTH_UNIT()
NAMED_UNIT(*)
SI_UNIT($,.METRE.)
);
#554=(
NAMED_UNIT(*)
PLANE_ANGLE_UNIT()
SI_UNIT($,.RADIAN.)
);
#555=(
NAMED_UNIT(*)
SI_UNIT($,.STERADIAN.)
SOLID_ANGLE_UNIT()
);
#556=SHAPE_DEFINITION_REPRESENTATION(#557,#558);
#557=PRODUCT_DEFINITION_SHAPE('',$,#560);
#558=SHAPE_REPRESENTATION('',(#352),#550);
#559=PRODUCT_DEFINITION_CONTEXT('part definition',#564,'design');
#560=PRODUCT_DEFINITION('EMOCD_Brake','EMOCD_Brake v1',#561,#559);
#561=PRODUCT_DEFINITION_FORMATION('',$,#566);
#562=PRODUCT_RELATED_PRODUCT_CATEGORY('EMOCD_Brake v1','EMOCD_Brake v1',
(#566));
#563=APPLICATION_PROTOCOL_DEFINITION('international standard',
'automotive_design',2009,#564);
#564=APPLICATION_CONTEXT(
'Core Data for Automotive Mechanical Design Process');
#565=PRODUCT_CONTEXT('part definition',#564,'mechanical');
#566=PRODUCT('EMOCD_Brake','EMOCD_Brake v1',$,(#565));
#567=PRESENTATION_STYLE_ASSIGNMENT((#569));
#568=PRESENTATION_STYLE_ASSIGNMENT((#570));
#569=SURFACE_STYLE_USAGE(.BOTH.,#571);
#570=SURFACE_STYLE_USAGE(.BOTH.,#572);
#571=SURFACE_SIDE_STYLE('',(#573));
#572=SURFACE_SIDE_STYLE('',(#574));
#573=SURFACE_STYLE_FILL_AREA(#575);
#574=SURFACE_STYLE_FILL_AREA(#576);
#575=FILL_AREA_STYLE('Steel - Satin',(#577));
#576=FILL_AREA_STYLE('Stainless Steel - Satin',(#578));
#577=FILL_AREA_STYLE_COLOUR('Steel - Satin',#579);
#578=FILL_AREA_STYLE_COLOUR('Stainless Steel - Satin',#580);
#579=COLOUR_RGB('Steel - Satin',0.627450980392157,0.627450980392157,0.627450980392157);
#580=COLOUR_RGB('Stainless Steel - Satin',0.796078431372549,0.796078431372549,
0.796078431372549);
ENDSEC;
END-ISO-10303-21;
